<svg version="1.1" id="Layer_1" xmlns="http://www.w3.org/2000/svg" xmlns:xlink="http://www.w3.org/1999/xlink" x="0px" y="0px"
	 width="100%" viewBox="0 0 500 500" enable-background="new 0 0 500 500" xml:space="preserve">
<path fill="#000000" opacity="1.000000" stroke="none" 
	d="
M501.000000,263.000000 
	C501.000000,342.316193 501.000000,421.632355 501.000000,500.974274 
	C334.386505,500.974274 167.773010,500.974274 1.079751,500.974274 
	C1.079751,334.422546 1.079751,167.845062 1.079751,1.133782 
	C167.666611,1.133782 334.333282,1.133782 501.000000,1.129023 
	C501.000000,85.106171 501.000000,169.088074 500.717865,253.872009 
	C497.877930,250.207565 495.320160,245.741058 492.627808,241.020950 
	C486.408203,231.904587 465.569611,229.339828 458.634766,243.852570 
	C458.474792,241.989639 458.649567,240.290710 458.837891,238.460220 
	C457.579346,237.794235 456.295563,237.114899 454.990753,236.074066 
	C449.377747,231.104309 445.408875,235.504227 441.274109,238.487625 
	C440.713348,237.954819 440.414520,237.422241 440.014008,237.329666 
	C436.824371,236.592392 433.597412,235.458862 430.424438,235.578140 
	C429.573517,235.610138 428.258240,239.522781 428.202148,241.681107 
	C427.947083,251.495895 427.964386,261.322144 428.134827,271.139893 
	C428.168854,273.100830 429.299896,275.042664 430.096680,277.336395 
	C431.380890,282.028656 434.895447,281.023346 437.888428,281.037720 
	C445.019348,281.071991 445.014343,281.041351 445.004883,274.155701 
	C444.998260,269.346924 444.780640,264.523834 445.082581,259.733917 
	C445.325409,255.881271 446.632446,252.088669 450.813812,250.943298 
	C452.732391,250.417770 455.059906,251.385223 457.180420,252.156433 
	C457.111328,255.424911 457.007111,258.213043 457.028381,261.000214 
	C457.069580,266.396881 460.917511,272.393555 465.434326,274.353699 
	C465.616974,274.777496 465.818481,274.937653 466.062073,274.974365 
	C466.047729,274.921967 465.942719,274.950012 465.893890,275.322388 
	C466.805054,276.771149 467.564697,278.214691 468.756989,278.865540 
	C477.766510,283.783722 490.089783,283.115967 497.927216,275.479065 
	C496.625549,273.902100 495.309540,272.307770 493.857422,270.419250 
	C490.525238,265.294495 486.950562,264.411224 481.759918,267.770996 
	C480.047668,268.879242 476.613129,267.326569 473.961548,266.554230 
	C475.272644,265.428802 476.553314,264.227966 477.909698,264.135345 
	C485.596436,263.610138 493.301300,263.350220 501.000000,263.000000 
M313.056152,248.914871 
	C313.056152,248.914871 312.924103,248.946259 312.842926,249.677643 
	C314.204590,251.003342 315.347351,252.771744 316.968231,253.573181 
	C322.198700,256.159302 327.605194,258.389496 332.864044,261.495697 
	C330.244080,267.431915 326.176453,269.275055 320.233368,266.939362 
	C317.106323,265.710388 314.137939,264.077789 310.932343,262.548492 
	C309.379913,264.347168 307.654938,266.119507 306.202606,268.092560 
	C304.763702,270.047272 304.358307,272.007019 308.061066,273.377014 
	C309.198914,274.638611 310.109802,276.299072 311.511658,277.096710 
	C320.263367,282.076294 329.131714,283.077667 339.234192,280.298553 
	C350.797760,277.117432 354.639313,260.941132 345.695953,252.164017 
	C341.328827,249.419952 337.029297,246.559341 332.569885,243.974487 
	C329.787262,242.361557 326.763367,241.164856 324.211365,239.174713 
	C325.652832,238.064713 326.988922,236.226517 328.558136,235.999496 
	C331.625671,235.555740 334.823364,236.011795 338.293793,236.718628 
	C342.192474,240.845352 344.968475,238.226151 347.396545,235.027863 
	C349.902222,231.727280 347.762482,229.741638 344.734741,227.452576 
	C340.591583,225.397354 336.631378,222.265457 332.265015,221.523407 
	C324.494720,220.202866 316.436920,219.913010 310.339508,226.870667 
	C305.132751,232.812057 306.093903,244.336884 312.371216,248.598053 
	C312.440155,249.019470 312.679169,249.169037 313.056152,248.914871 
M140.298477,178.527725 
	C133.581696,177.927383 131.693619,180.189514 132.303894,188.818954 
	C134.041687,192.227997 135.683044,195.696243 137.678543,198.947083 
	C137.861710,199.245483 141.042755,198.579605 141.583679,197.641708 
	C145.370010,191.076614 150.967896,189.173904 157.847580,192.413803 
	C158.971252,192.942993 160.250641,193.141510 162.156601,193.696136 
	C159.850571,188.033951 155.741455,187.411972 151.601456,186.635712 
	C150.227493,186.378082 147.874512,185.328140 147.883347,184.665985 
	C147.950668,179.620224 144.639816,179.074829 140.298477,178.527725 
M129.192276,246.667068 
	C129.203262,247.089218 129.214249,247.511368 129.118607,248.833176 
	C129.142181,251.235443 129.165756,253.637711 129.154938,256.886017 
	C129.160080,258.579376 129.165222,260.272766 129.118942,262.745636 
	C130.440521,264.572357 131.393723,267.336823 133.160294,268.030823 
	C136.853683,269.481812 141.023987,270.071198 144.009369,265.041748 
	C143.995773,257.823151 144.114777,250.600220 143.879547,243.388824 
	C143.817230,241.478851 142.664597,239.604416 141.534698,237.239365 
	C135.967819,233.523148 130.563721,234.781647 129.764496,240.394104 
	C129.764496,240.394104 129.688538,240.838181 129.325378,241.495117 
	C129.273926,243.008072 129.222488,244.521042 129.192276,246.667068 
M64.576271,225.196472 
	C54.409496,225.144501 44.242722,225.092529 33.256001,225.083069 
	C30.281269,225.678589 27.306536,226.274094 24.331802,226.869598 
	C24.406504,227.578262 24.481207,228.286942 24.555908,228.995605 
	C26.764006,229.326111 28.969315,229.917908 31.180685,229.941513 
	C40.337078,230.039246 49.496674,229.877930 58.651825,230.020798 
	C60.713375,230.052979 63.272911,230.314529 64.721703,231.525269 
	C69.308159,235.358170 73.384315,239.794235 77.843529,243.789764 
	C80.380753,246.063156 83.280190,247.932297 85.814240,250.622559 
	C79.212730,257.268799 72.756340,264.070831 65.906906,270.450867 
	C64.210335,272.031189 61.239220,272.243195 57.936234,273.036987 
	C48.476330,273.029694 39.016071,272.979767 29.556887,273.058807 
	C28.054832,273.071320 26.557625,273.664154 24.556688,274.530396 
	C23.774214,277.959198 26.401190,276.859833 27.876551,276.871887 
	C37.676548,276.952179 47.517059,276.390656 57.264633,277.113495 
	C64.218391,277.629089 68.359543,274.301514 72.681198,269.872131 
	C80.317802,262.045197 88.304314,254.560791 96.090279,246.878189 
	C106.110306,236.991211 116.077042,227.050247 126.568291,216.441147 
	C126.693016,203.994263 126.817741,191.547363 126.977280,178.506180 
	C126.966278,178.308060 126.955276,178.109940 126.953636,177.236008 
	C126.637802,176.227066 126.321968,175.218109 125.452980,173.918472 
	C124.657242,175.354691 123.202431,176.777176 123.172142,178.229355 
	C122.967308,188.050186 122.752419,197.891022 123.185387,207.696930 
	C123.425941,213.144958 121.396309,216.937744 117.445679,220.176788 
	C115.405838,221.849228 113.461853,223.638031 111.449837,225.345108 
	C108.579178,227.780640 104.397118,227.287979 102.005318,224.259308 
	C99.277863,220.805634 91.147072,219.832031 87.724335,222.549255 
	C79.922249,228.743134 79.679657,228.735046 72.944977,221.751587 
	C71.454292,220.205826 69.639252,218.819275 68.633446,216.995499 
	C67.120010,214.251282 65.461304,211.257431 65.166283,208.242310 
	C64.617500,202.633774 65.068581,196.932266 64.966728,191.271927 
	C64.938705,189.714478 64.426292,188.165741 64.136147,186.613022 
	C62.750031,187.298615 62.237839,187.855194 62.233521,188.415665 
	C62.166859,197.072098 62.041744,205.732224 62.262447,214.383011 
	C62.303188,215.979843 63.501308,217.829086 64.683907,219.065903 
	C69.746178,224.360413 74.938263,229.536728 80.239098,234.592499 
	C81.382622,235.683151 83.173050,236.095566 84.665497,236.820389 
	C84.840935,236.448929 85.016365,236.077469 85.191803,235.706009 
	C84.552063,234.162933 83.912331,232.619873 82.988960,230.392654 
	C85.395676,230.392654 87.321991,230.939240 88.497627,230.234177 
	C89.604637,229.570236 89.766052,227.483688 90.619423,226.207535 
	C91.981659,224.170441 96.741295,224.800476 97.785553,227.129883 
	C98.297585,228.272049 98.521774,229.543228 98.864067,230.714401 
	C101.109650,230.714401 102.961571,230.714401 106.260040,230.714401 
	C98.879539,237.739441 92.428871,243.879425 85.958397,249.244995 
	C85.788742,248.124207 86.031143,246.591354 85.385918,245.946106 
	C78.651726,239.211777 71.775070,232.619888 64.576271,225.196472 
M151.747467,229.859299 
	C152.246841,229.867447 152.746368,229.870438 153.245575,229.884567 
	C159.984940,230.075317 167.110779,228.994644 171.562759,236.184921 
	C171.931335,236.780151 174.328629,236.119308 176.253433,236.017120 
	C174.386032,230.660004 174.316620,225.350037 169.012527,221.802109 
	C168.656586,224.136505 168.430191,225.621353 168.371094,226.008911 
	C154.257721,226.008911 140.698898,225.903900 127.144836,226.111252 
	C124.859428,226.146225 121.975540,226.885941 120.415321,228.387848 
	C103.302177,244.861389 86.374695,261.528442 69.486595,278.233704 
	C68.389984,279.318451 68.030342,281.148224 67.327888,282.631439 
	C67.805565,282.939758 68.283234,283.248047 68.760910,283.556335 
	C69.927071,282.742249 71.228424,282.067535 72.236275,281.090179 
	C76.887428,276.579712 81.308952,271.822601 86.094528,267.463196 
	C91.584831,262.461823 97.371918,257.786285 102.884949,253.630508 
	C103.334610,255.632431 103.125565,258.280273 104.346764,259.525635 
	C109.947067,265.236816 115.947441,270.555664 122.334297,276.727753 
	C133.830215,276.771942 145.326126,276.816132 157.714859,276.847321 
	C161.571548,276.402557 165.428253,275.957764 169.691589,275.466095 
	C165.955109,288.753693 158.402893,299.751465 148.524139,309.258087 
	C141.663818,315.860016 133.733231,320.886169 124.855087,324.436066 
	C123.267868,325.070709 122.000496,326.505249 120.585449,327.570465 
	C122.886314,328.662720 124.929855,329.261383 126.338097,328.568604 
	C138.292023,322.688110 149.675644,315.919525 158.108536,305.253357 
	C166.446640,294.707092 172.912964,283.202759 175.158859,269.731018 
	C175.364304,268.498749 174.682938,267.118622 174.413361,265.807159 
	C173.355637,266.399658 172.333862,267.071411 171.233749,267.570496 
	C167.137222,269.429077 163.014969,271.230988 157.977783,273.029266 
	C146.627060,272.842377 135.276337,272.655518 123.663071,271.890137 
	C120.201027,268.412506 116.858017,264.804749 113.241676,261.495758 
	C109.972649,258.504578 106.404984,255.839767 103.098557,252.350998 
	C109.718376,245.432831 116.288155,238.465240 123.015587,231.653336 
	C123.952545,230.704590 125.665695,230.522400 127.499855,230.004684 
	C127.499855,230.004684 127.980179,229.985596 128.526260,230.001755 
	C128.707733,229.986740 128.889221,229.971725 129.995590,229.979233 
	C136.929276,229.937363 143.862961,229.895508 151.747467,229.859299 
M367.920776,227.117142 
	C365.968842,225.302979 356.700073,224.295334 355.176575,225.957214 
	C354.599365,226.586807 355.039581,228.048035 354.710022,229.027161 
	C354.060638,230.956482 353.721924,233.487534 352.324829,234.575180 
	C348.062775,237.893158 347.723541,241.635696 351.563110,245.588333 
	C353.040588,247.109329 354.523895,249.301529 354.687134,251.295746 
	C355.182159,257.343475 354.789246,263.462158 355.242004,269.515808 
	C355.455109,272.364807 356.213257,275.587952 360.128662,276.758759 
	C363.923401,282.531769 378.256317,284.058746 382.340027,279.073456 
	C382.799896,278.512024 383.213379,277.294525 382.925140,276.841949 
	C381.425537,274.487762 379.691559,272.282806 377.515076,269.546295 
	C375.357513,268.699463 373.199982,267.852631 371.008057,266.068695 
	C371.008057,260.132690 371.008057,254.196701 371.008057,248.004395 
	C373.912048,248.004395 376.202423,248.004395 378.799438,248.004395 
	C379.189087,244.245621 382.450317,240.394669 376.848419,237.081833 
	C374.794312,236.364594 372.740173,235.647354 370.830963,234.069748 
	C370.446198,231.754211 373.302551,227.983948 367.920776,227.117142 
M252.401733,276.569122 
	C258.170624,282.601501 271.322083,283.910797 278.259003,279.301392 
	C290.154083,271.397430 290.850189,251.615112 281.723663,243.147400 
	C280.914429,242.318756 280.066803,241.523941 279.301941,240.656219 
	C271.848755,232.201019 259.372040,231.305313 250.448318,237.729416 
	C244.073166,242.318832 243.655197,248.850662 243.243469,255.319916 
	C242.726135,263.448425 244.037445,271.248749 252.401733,276.569122 
M418.354370,241.590881 
	C416.881836,240.247910 415.584778,238.609512 413.906616,237.612808 
	C406.396851,233.152527 397.402344,231.918655 389.213104,236.499771 
	C378.114258,242.708557 378.102631,268.830566 389.213745,275.660706 
	C392.403534,277.567719 395.392242,280.038208 398.825378,281.263153 
	C405.737457,283.729340 417.265228,280.326202 420.808960,275.577209 
	C427.004608,267.274384 427.238251,249.391846 418.354370,241.590881 
M128.502930,313.349945 
	C130.070053,315.152283 131.392288,315.692017 133.887085,314.152191 
	C144.873764,307.371033 153.137283,298.159058 159.412109,287.010864 
	C161.419403,283.444641 159.857559,282.119446 156.316772,282.115540 
	C149.017654,282.107483 141.574448,281.272430 134.466034,282.446259 
	C129.016846,283.346069 123.921532,286.668945 118.834618,289.241943 
	C117.839241,289.745392 117.604584,291.752838 116.261719,292.981964 
	C112.649155,294.729156 109.177040,294.409851 105.373932,293.121857 
	C101.682526,291.871704 97.667854,291.188690 93.770294,291.069519 
	C91.127838,290.988770 88.478470,292.571503 85.767967,292.948334 
	C81.498367,293.541901 77.174751,293.746948 72.557259,294.143707 
	C74.168648,299.441498 79.152397,296.588501 82.916328,298.067963 
	C81.521545,300.138702 80.482697,301.981903 79.154716,303.585663 
	C76.871162,306.343445 76.826820,308.941742 79.454849,311.362061 
	C82.260231,313.945709 84.974075,312.835876 87.512253,310.800720 
	C88.937080,309.658325 90.259270,308.388763 91.665604,307.222168 
	C95.218628,304.274750 98.352867,304.438629 101.664482,307.943726 
	C105.305069,311.797028 109.433884,315.185211 113.256744,318.872711 
	C114.270073,319.850189 114.940643,321.183014 115.768585,322.352661 
	C115.391052,322.710205 115.013512,323.067749 114.635979,323.425293 
	C110.859550,320.585175 107.083122,317.745026 102.790718,314.516846 
	C101.363518,322.045319 109.785576,322.807648 110.707756,327.868225 
	C110.319855,328.231171 109.931961,328.594086 109.544060,328.957031 
	C106.143234,326.254364 102.742416,323.551727 99.341591,320.849060 
	C98.815193,321.340515 98.288795,321.831940 97.762390,322.323395 
	C99.984161,325.224731 102.205933,328.126099 104.427704,331.027435 
	C98.208771,328.832306 96.590813,327.547333 94.131081,323.799805 
	C92.489189,321.298309 82.099815,318.063080 79.361588,319.207977 
	C79.059151,319.334412 78.672424,319.444946 78.507500,319.687256 
	C74.745888,325.213135 72.206665,320.880127 69.550896,318.507812 
	C68.083244,317.196808 67.064079,315.336670 65.496704,314.202118 
	C64.566238,313.528564 62.962894,313.784637 61.662086,313.622711 
	C64.630432,318.698151 69.430107,321.976318 71.105652,326.429901 
	C73.297028,332.254578 78.238937,333.781708 82.199989,336.909607 
	C84.195847,338.485657 86.820183,340.989777 88.724747,340.647888 
	C95.601097,339.413483 103.287498,340.496277 108.796997,334.355377 
	C111.602554,331.228302 115.427429,329.011963 118.210190,325.869171 
	C121.776108,321.841949 124.756561,317.296326 128.502930,313.349945 
M200.378159,272.321289 
	C200.606995,272.537598 200.815903,272.771698 201.088730,273.467102 
	C201.236786,273.759552 201.472839,273.930450 202.246277,274.520935 
	C203.258987,275.604279 204.120285,276.903717 205.308655,277.736359 
	C213.828949,283.706146 231.249741,283.387482 239.709930,277.156555 
	C240.272537,276.742218 241.035049,275.936035 240.960968,275.418579 
	C239.518311,265.339722 244.678574,254.389648 236.425751,244.752243 
	C231.319046,244.855957 226.212311,245.036728 221.105667,245.034088 
	C218.109970,245.032547 216.281708,246.611221 217.272934,249.233353 
	C218.410126,252.241684 220.280045,255.286270 222.631897,257.442108 
	C225.504181,260.075012 224.442368,262.891724 223.333115,265.034332 
	C222.553635,266.539978 219.719009,267.298828 217.664322,267.721313 
	C216.165405,268.029572 214.442001,267.246368 212.846680,266.167175 
	C212.251389,259.498932 210.668152,252.722046 211.385483,246.198120 
	C211.922104,241.317673 214.742081,235.516281 220.981567,235.295563 
	C225.447952,235.137573 229.987183,237.038651 234.317947,237.982666 
	C236.290436,236.293472 238.766602,234.172943 241.483856,231.845963 
	C239.735336,230.355881 238.368515,229.191086 236.699417,227.407211 
	C230.234329,221.078293 215.136444,218.584442 207.617340,222.850372 
	C197.562515,228.554947 191.964340,237.038345 193.176498,248.889847 
	C194.001053,256.951538 193.206635,265.651367 200.378159,272.321289 
M97.691856,214.943710 
	C107.230049,214.459625 113.864677,209.562286 116.372093,200.585693 
	C117.937752,194.980621 117.793671,188.826645 117.917473,182.908554 
	C118.065720,175.822250 114.757263,170.245392 109.161140,165.999985 
	C103.244766,161.511627 96.764969,160.752945 89.437775,161.794891 
	C78.638405,163.330597 69.897934,173.961304 71.464066,184.711212 
	C71.795708,186.987564 72.177666,189.432800 71.698563,191.616394 
	C70.493690,197.107803 72.084435,201.847427 75.009933,206.232620 
	C80.247948,214.084152 88.093452,215.757828 97.691856,214.943710 
M41.504711,282.105530 
	C37.241249,282.105530 32.977787,282.105530 28.714327,282.105530 
	C28.318251,282.592194 27.922174,283.078888 27.526098,283.565552 
	C29.569801,287.164520 31.032661,291.303375 33.774586,294.253357 
	C40.048576,301.003448 46.844746,307.285248 53.658760,313.505371 
	C55.577148,315.256592 58.321743,315.774872 60.026108,312.739441 
	C63.601246,306.372223 67.089020,299.955872 70.597382,293.551300 
	C71.828453,291.303925 71.562096,290.148041 68.944649,288.553558 
	C60.721565,283.544312 52.092781,281.059784 41.504711,282.105530 
M20.217264,280.165436 
	C19.395489,277.120667 18.372713,274.113586 17.793453,271.023346 
	C16.558758,264.436523 15.401368,257.927216 9.291053,253.705444 
	C6.923204,252.069443 7.844804,250.228027 9.742772,248.887375 
	C14.419721,245.583725 16.135050,240.912064 17.240541,235.447723 
	C19.190350,225.809967 22.602753,216.638748 28.282183,208.427505 
	C37.266773,195.437714 48.707584,185.445023 63.250397,179.089661 
	C63.939480,178.788528 64.289772,177.712173 64.797844,176.996841 
	C63.900669,176.468307 63.040024,175.611923 62.095695,175.506714 
	C61.214111,175.408493 60.223820,176.063141 59.315292,176.463379 
	C47.178646,181.810089 36.907906,189.748825 29.133425,200.368652 
	C24.498653,206.699692 21.018202,213.944839 17.536362,221.033264 
	C13.239518,229.780884 14.097465,240.725372 5.408316,247.765610 
	C2.776573,249.897934 3.327034,254.042114 6.697912,256.374878 
	C10.713701,259.153900 11.952596,263.183167 13.196271,267.656036 
	C15.498822,275.937164 17.403851,284.669769 21.585249,292.012299 
	C28.946466,304.938538 38.889992,316.061127 52.172665,323.437378 
	C57.566673,326.432800 63.473179,328.505341 69.146500,330.997772 
	C69.523735,330.421600 69.900970,329.845428 70.278198,329.269287 
	C68.801056,328.098083 67.455673,326.682648 65.822105,325.801361 
	C60.879887,323.135010 55.435474,321.230682 50.888924,318.031494 
	C37.371151,308.519806 26.264771,296.840179 20.217264,280.165436 
M136.620483,219.272614 
	C144.387085,220.831116 147.642181,219.610367 148.259964,214.320007 
	C146.220963,214.873505 144.345703,215.893951 142.587448,215.721512 
	C140.683563,215.534760 137.899734,214.679352 137.286865,213.313599 
	C136.445419,211.438446 136.637360,208.454224 137.636383,206.629593 
	C138.282516,205.449509 141.446777,204.649368 142.984009,205.165146 
	C146.125565,206.219131 148.074432,205.708923 150.463593,203.410904 
	C154.754120,199.284042 159.027679,200.077530 162.558121,205.048859 
	C163.415359,206.255966 164.576538,207.302338 165.189178,208.613586 
	C165.894684,210.123642 166.894821,212.155136 166.384506,213.387833 
	C165.879318,214.608124 163.739288,215.467636 162.160843,215.860336 
	C159.091904,216.623795 155.914139,216.949844 152.781464,217.457092 
	C156.732956,222.280701 161.305695,221.409897 165.587463,220.029449 
	C171.176758,218.227478 173.574707,212.256760 170.081650,207.681076 
	C166.977753,203.615173 162.842621,200.063049 158.500229,197.340820 
	C156.564499,196.127350 152.296295,196.523178 150.340118,197.930649 
	C147.113266,200.252396 144.033188,201.124374 140.231110,201.084030 
	C135.479172,201.033630 132.675797,203.961868 132.077347,208.709122 
	C131.557266,212.834595 132.819885,216.191635 136.620483,219.272614 
M81.777283,284.539459 
	C83.830238,284.981812 86.779900,286.509064 87.782349,285.680481 
	C92.346008,281.908325 96.159264,283.150879 100.707436,285.664185 
	C103.331909,287.114471 106.415924,285.894745 107.446014,282.529205 
	C108.498978,279.088928 106.430214,277.030640 103.453384,276.268158 
	C101.716675,275.823273 99.698929,276.507141 97.804535,276.638611 
	C95.128006,276.824402 92.219490,277.721161 89.813950,276.988403 
	C82.928108,274.890808 80.763962,276.417877 81.777283,284.539459 
M154.969040,257.275635 
	C150.754501,255.725006 150.265930,252.963058 153.498001,250.292374 
	C156.085129,248.154648 159.488510,247.027359 162.449020,245.312485 
	C165.331848,243.642563 167.653244,244.186447 170.133270,246.299240 
	C171.392181,247.371735 173.359360,247.585083 174.960648,248.290543 
	C176.889801,249.140442 178.770462,250.100494 180.672089,251.012863 
	C179.370392,252.859406 178.276230,254.917984 176.688385,256.472198 
	C175.750305,257.390411 174.031036,257.510529 172.663055,257.989563 
	C172.882050,258.720337 173.101044,259.451141 173.320053,260.181915 
	C176.050858,259.378784 179.501205,259.312073 181.299652,257.554749 
	C182.929581,255.962112 184.000626,251.893417 183.067749,250.063812 
	C181.900345,247.774231 178.495193,246.550171 175.932770,245.081131 
	C174.763168,244.410583 172.913528,244.650543 172.035141,243.796127 
	C168.497101,240.354752 164.696869,240.624390 160.631683,242.400192 
	C158.974609,243.124054 157.115967,243.616989 155.741882,244.709229 
	C153.046219,246.852051 149.889450,248.928467 148.282928,251.794418 
	C146.385437,255.179459 150.741791,260.266663 154.561340,259.732117 
	C154.973602,259.674408 155.208374,258.348389 154.969040,257.275635 
M40.106419,204.340744 
	C42.274963,203.242096 44.366165,201.922165 46.640827,201.127136 
	C48.022675,200.644150 50.410469,200.321762 51.080673,201.066406 
	C52.642365,202.801514 53.438679,205.225479 54.545078,207.370392 
	C53.109055,207.932907 51.690968,208.548492 50.231506,209.041656 
	C48.997387,209.458664 47.715366,209.733902 45.245998,210.395844 
	C49.737755,213.823517 52.897587,213.537674 56.214828,211.271545 
	C59.476971,209.043060 58.570652,206.653687 56.736832,204.067505 
	C55.876686,202.854462 55.240162,201.483978 54.486706,200.193954 
	C52.255657,196.374023 48.785358,196.492691 45.335262,197.717438 
	C42.751541,198.634613 39.996700,199.790009 38.077927,201.631226 
	C36.554920,203.092697 35.129555,206.026978 35.590626,207.807632 
	C36.072239,209.667603 38.673714,211.361160 40.728062,212.256699 
	C41.641891,212.655045 43.486626,210.917908 44.908833,210.150040 
	C38.367554,208.057968 38.367554,208.057968 40.106419,204.340744 
M42.817139,237.467026 
	C39.883656,247.714615 36.950172,257.962219 34.016685,268.209808 
	C34.600433,268.523193 35.184177,268.836609 35.767925,269.150024 
	C36.864635,267.640167 38.439892,266.282837 38.977898,264.594910 
	C41.794250,255.758926 44.399864,246.853851 46.919304,237.927811 
	C47.200695,236.930847 46.473652,235.649231 46.214268,234.499619 
	C45.159744,235.249832 44.105217,236.000046 42.817139,237.467026 
M33.258614,244.570145 
	C32.407097,243.965057 31.145683,242.646194 30.766645,242.863876 
	C26.346395,245.402252 22.010506,248.100800 17.797810,250.970566 
	C17.270638,251.329697 17.194622,253.628998 17.560112,253.826706 
	C22.196484,256.334808 26.952057,258.622528 31.677263,260.966400 
	C32.105785,260.308075 32.534309,259.649719 32.962833,258.991394 
	C30.095690,256.787994 27.228546,254.584564 24.075129,252.161148 
	C27.481167,249.534668 30.295717,247.364319 33.258614,244.570145 
M51.404873,256.007965 
	C50.116611,257.221771 48.828350,258.435547 47.540089,259.649353 
	C49.469105,259.649475 51.626102,260.205811 53.277618,259.528900 
	C56.314526,258.284119 59.149940,256.451263 61.859360,254.562332 
	C62.680782,253.989655 63.380856,252.284760 63.148048,251.342728 
	C62.519558,248.799622 51.575043,243.859375 46.933647,244.752075 
	C50.602531,247.488892 53.438736,249.604568 56.647243,251.997971 
	C55.021408,253.239471 53.496609,254.403824 51.404873,256.007965 
M105.917610,266.778809 
	C102.203392,266.207886 103.210930,268.214081 104.512779,269.729065 
	C107.087791,272.725739 109.809082,275.620209 112.688240,278.324463 
	C114.930305,280.430298 117.503044,282.184082 119.928825,284.094360 
	C120.489838,283.460724 121.050858,282.827118 121.611877,282.193512 
	C116.562744,277.178986 111.513611,272.164490 105.917610,266.778809 
z"/>
<path fill="#949494" opacity="1.000000" stroke="none" 
	d="
M492.762390,241.274551 
	C495.320160,245.741058 497.877930,250.207565 500.717865,254.337036 
	C501.000000,256.700012 501.000000,259.400024 501.000000,262.550018 
	C493.301300,263.350220 485.596436,263.610138 477.909698,264.135345 
	C476.553314,264.227966 475.272644,265.428802 473.638977,266.418671 
	C472.014801,264.648132 470.708618,262.576782 468.602203,259.236511 
	C477.104065,259.236511 483.860046,259.038208 490.596680,259.313385 
	C494.432220,259.470062 495.864044,257.972351 495.270569,254.412567 
	C494.537628,250.016037 493.607422,245.652405 492.762390,241.274551 
z"/>
<path fill="#212121" opacity="1.000000" stroke="none" 
	d="
M97.274628,214.959229 
	C88.093452,215.757828 80.247948,214.084152 75.009933,206.232620 
	C72.084435,201.847427 70.493690,197.107803 71.698563,191.616394 
	C72.177666,189.432800 71.795708,186.987564 71.464066,184.711212 
	C69.897934,173.961304 78.638405,163.330597 89.437775,161.794891 
	C96.764969,160.752945 103.244766,161.511627 109.161140,165.999985 
	C114.757263,170.245392 118.065720,175.822250 117.917473,182.908554 
	C117.793671,188.826645 117.937752,194.980621 116.372093,200.585693 
	C113.864677,209.562286 107.230049,214.459625 97.274628,214.959229 
M108.875885,186.178207 
	C112.952904,186.553421 114.766907,183.322693 113.036995,178.377625 
	C112.698448,177.409851 111.446709,176.761551 110.616158,175.965897 
	C109.620880,177.050720 107.944199,178.043411 107.782288,179.240906 
	C107.505959,181.284622 108.180122,183.456863 108.875885,186.178207 
M79.806152,177.048431 
	C78.681297,176.830887 77.556442,176.613342 76.431587,176.395782 
	C76.102211,179.094299 75.593346,181.796158 75.643745,184.487579 
	C75.651016,184.875656 78.348236,185.213348 79.800621,185.574356 
	C80.171753,183.347092 80.583473,181.125168 80.877304,178.887756 
	C80.931419,178.475677 80.508003,178.000885 79.806152,177.048431 
M80.687347,198.220627 
	C80.687347,195.851151 80.687347,193.481659 80.687347,190.785538 
	C78.601524,190.919189 77.030930,191.019821 74.921608,191.154984 
	C75.159370,193.675278 75.092682,195.827759 75.613503,197.827240 
	C76.419807,200.922760 78.099747,201.654617 80.687347,198.220627 
M107.921295,195.832779 
	C107.443687,199.044281 108.713524,200.772995 112.623833,201.016479 
	C112.750160,198.869400 113.171089,196.923126 112.870682,195.095413 
	C112.649109,193.747406 111.486000,192.554169 110.742401,191.291962 
	C109.820091,192.559402 108.897789,193.826843 107.921295,195.832779 
M98.046753,180.618530 
	C98.224014,182.525864 98.185249,184.503677 98.764763,186.279770 
	C98.877724,186.625961 102.294868,186.654633 102.623352,186.019974 
	C103.441269,184.439682 103.357536,182.392731 103.635796,180.533127 
	C101.993713,180.434235 100.351639,180.335358 98.046753,180.618530 
M87.159790,204.501068 
	C88.283524,206.232132 89.407249,207.963196 90.530983,209.694260 
	C91.086525,209.514038 91.642067,209.333817 92.197609,209.153595 
	C92.197609,207.015533 92.532997,204.797989 92.053146,202.773666 
	C91.820572,201.792496 90.059639,201.173599 88.990654,200.390671 
	C88.249443,201.564240 87.508224,202.737793 87.159790,204.501068 
M91.715195,184.177597 
	C92.404457,178.867691 88.652588,180.138290 84.977402,179.773438 
	C85.353111,181.887375 85.143044,184.432266 86.047989,184.923630 
	C87.405380,185.660660 89.545113,184.956879 91.715195,184.177597 
M91.573982,175.719971 
	C91.884094,173.079117 92.194206,170.438248 92.504311,167.797394 
	C92.026588,167.619858 91.548866,167.442322 91.071144,167.264801 
	C89.941170,168.718506 88.589035,170.052216 87.726036,171.650116 
	C85.736908,175.333130 86.947914,176.947144 91.573982,175.719971 
M92.191872,193.410934 
	C92.124405,189.038925 88.806267,190.808350 87.216263,191.332687 
	C84.016632,192.387863 84.754303,194.863510 86.195045,197.894104 
	C88.367851,196.464340 90.199203,195.259277 92.191872,193.410934 
M102.847610,191.262589 
	C101.023705,191.165436 99.199799,191.068283 97.531380,190.979416 
	C96.288330,195.452820 98.894096,196.565109 101.618080,196.466156 
	C104.975540,196.344147 104.095497,193.822693 102.847610,191.262589 
M100.653381,170.172806 
	C99.787605,169.389755 98.921829,168.606705 97.530533,167.348328 
	C97.530533,170.863281 97.530533,173.468277 97.530533,176.424393 
	C101.879143,175.913803 102.758629,174.066498 100.653381,170.172806 
M100.138405,206.495789 
	C100.586655,204.749252 101.034904,203.002716 101.483162,201.256165 
	C100.393654,201.062866 99.304146,200.869568 98.214630,200.676285 
	C97.759727,203.301498 97.304817,205.926727 96.849915,208.551941 
	C97.338791,208.662079 97.827675,208.772217 98.316551,208.882339 
	C98.833389,208.286148 99.350227,207.689941 100.138405,206.495789 
z"/>
<path fill="#262626" opacity="1.000000" stroke="none" 
	d="
M201.796921,273.979736 
	C201.472839,273.930450 201.236786,273.759552 200.867737,273.314270 
	C200.447922,272.768677 200.249084,272.375916 200.050262,271.983185 
	C193.206635,265.651367 194.001053,256.951538 193.176498,248.889847 
	C191.964340,237.038345 197.562515,228.554947 207.617340,222.850372 
	C215.136444,218.584442 230.234329,221.078293 236.673798,228.001373 
	C234.598984,230.471085 232.549774,232.346619 230.581955,234.147659 
	C228.911545,233.259964 227.630829,232.472672 226.267731,231.872482 
	C217.880203,228.179428 209.747574,231.337570 207.979935,240.236313 
	C206.689651,246.731979 207.371460,253.743942 208.047867,260.437439 
	C208.281097,262.745361 211.152451,264.786621 212.818680,266.949707 
	C214.442001,267.246368 216.165405,268.029572 217.664322,267.721313 
	C219.719009,267.298828 222.553635,266.539978 223.333115,265.034332 
	C224.442368,262.891724 225.504181,260.075012 222.631897,257.442108 
	C220.280045,255.286270 218.410126,252.241684 217.272934,249.233353 
	C216.281708,246.611221 218.109970,245.032547 221.105667,245.034088 
	C226.212311,245.036728 231.319046,244.855957 236.752640,245.401962 
	C237.108795,253.493271 237.351532,260.944519 237.016632,268.369659 
	C236.933304,270.216980 235.345474,273.082581 233.825470,273.582031 
	C228.567459,275.309845 223.042465,277.102264 217.603546,277.151428 
	C212.344666,277.199066 207.066574,275.122955 201.796921,273.979736 
z"/>
<path fill="#282828" opacity="1.000000" stroke="none" 
	d="
M312.299866,248.115845 
	C306.093903,244.336884 305.132751,232.812057 310.339508,226.870667 
	C316.436920,219.913010 324.494720,220.202866 332.265015,221.523407 
	C336.631378,222.265457 340.591583,225.397354 344.750580,228.082825 
	C342.545715,230.708344 340.324982,232.703644 337.936676,234.401657 
	C333.409912,230.977219 328.669159,229.152237 323.481537,231.491608 
	C322.031128,232.145660 320.504578,234.401672 320.494873,235.932205 
	C320.486816,237.208145 322.647552,238.497787 323.847748,239.781372 
	C326.763367,241.164856 329.787262,242.361557 332.569885,243.974487 
	C337.029297,246.559341 341.328827,249.419952 345.771545,252.932281 
	C347.674683,270.607758 340.605316,278.358490 323.474915,277.197998 
	C318.057434,276.831024 312.778625,274.417480 307.436340,272.940552 
	C304.358307,272.007019 304.763702,270.047272 306.202606,268.092560 
	C307.654938,266.119507 309.379913,264.347168 310.932343,262.548492 
	C314.137939,264.077789 317.106323,265.710388 320.233368,266.939362 
	C326.176453,269.275055 330.244080,267.431915 332.840210,260.785706 
	C330.921173,258.247955 329.315491,255.846573 327.069855,254.713120 
	C322.538696,252.426117 317.659637,250.828339 312.924103,248.946259 
	C312.924103,248.946259 313.056152,248.914871 312.898499,248.866608 
	C312.567047,248.601013 312.420044,248.366837 312.299866,248.115845 
z"/>
<path fill="#232323" opacity="1.000000" stroke="none" 
	d="
M127.989258,312.974060 
	C124.756561,317.296326 121.776108,321.841949 118.210190,325.869171 
	C115.427429,329.011963 111.602554,331.228302 108.796997,334.355377 
	C103.287498,340.496277 95.601097,339.413483 88.724747,340.647888 
	C86.820183,340.989777 84.195847,338.485657 82.199989,336.909607 
	C78.238937,333.781708 73.297028,332.254578 71.105652,326.429901 
	C69.430107,321.976318 64.630432,318.698151 61.662086,313.622711 
	C62.962894,313.784637 64.566238,313.528564 65.496704,314.202118 
	C67.064079,315.336670 68.083244,317.196808 69.550896,318.507812 
	C72.206665,320.880127 74.745888,325.213135 78.507500,319.687256 
	C78.672424,319.444946 79.059151,319.334412 79.361588,319.207977 
	C82.099815,318.063080 92.489189,321.298309 94.131081,323.799805 
	C96.590813,327.547333 98.208771,328.832306 104.427704,331.027435 
	C102.205933,328.126099 99.984161,325.224731 97.762390,322.323395 
	C98.288795,321.831940 98.815193,321.340515 99.341591,320.849060 
	C102.742416,323.551727 106.143234,326.254364 109.544060,328.957031 
	C109.931961,328.594086 110.319855,328.231171 110.707756,327.868225 
	C109.785576,322.807648 101.363518,322.045319 102.790718,314.516846 
	C107.083122,317.745026 110.859550,320.585175 114.635979,323.425293 
	C115.013512,323.067749 115.391052,322.710205 115.768585,322.352661 
	C114.940643,321.183014 114.270073,319.850189 113.256744,318.872711 
	C109.433884,315.185211 105.305069,311.797028 101.664482,307.943726 
	C98.352867,304.438629 95.218628,304.274750 91.665604,307.222168 
	C90.259270,308.388763 88.937080,309.658325 87.512253,310.800720 
	C84.974075,312.835876 82.260231,313.945709 79.454849,311.362061 
	C76.826820,308.941742 76.871162,306.343445 79.154716,303.585663 
	C80.482697,301.981903 81.521545,300.138702 82.916328,298.067963 
	C79.152397,296.588501 74.168648,299.441498 72.557259,294.143707 
	C77.174751,293.746948 81.498367,293.541901 85.767967,292.948334 
	C88.478470,292.571503 91.127838,290.988770 93.770294,291.069519 
	C97.667854,291.188690 101.682526,291.871704 105.373932,293.121857 
	C109.177040,294.409851 112.649155,294.729156 116.636482,293.263672 
	C117.008545,293.865540 117.006210,294.185669 116.771622,294.847107 
	C112.619347,295.548737 108.698151,296.199890 104.780464,296.179443 
	C101.510086,296.162323 98.246445,295.008484 94.975151,294.984131 
	C89.934029,294.946594 82.749413,303.272766 83.187401,308.717926 
	C84.795303,307.486267 86.238533,306.456451 87.598412,305.326294 
	C94.104637,299.919159 96.922012,299.586639 103.619698,304.815125 
	C108.654640,308.745636 113.164497,313.348785 117.156372,316.970490 
	C121.260162,315.475800 124.639870,314.244812 128.010010,313.005554 
	C128.000443,312.997253 127.989250,312.974060 127.989258,312.974060 
z"/>
<path fill="#272727" opacity="1.000000" stroke="none" 
	d="
M388.940369,274.991516 
	C378.102631,268.830566 378.114258,242.708557 389.213104,236.499771 
	C397.402344,231.918655 406.396851,233.152527 413.906616,237.612808 
	C415.584778,238.609512 416.881836,240.247910 418.531616,242.177795 
	C419.252625,249.272797 420.844757,255.904831 420.093506,262.259857 
	C418.976166,271.711975 411.585358,277.438446 402.036499,277.299164 
	C397.660828,277.235352 393.305115,275.803131 388.940369,274.991516 
M398.692902,267.302917 
	C402.482941,269.354767 406.455811,267.311096 406.860565,262.612000 
	C407.277588,257.770477 406.982330,252.867584 406.900177,247.249207 
	C404.978058,245.768600 403.050537,243.118134 401.135254,243.126923 
	C399.102295,243.136261 395.557007,245.465057 395.332703,247.137726 
	C394.579712,252.752670 394.867676,258.533386 395.131989,264.233307 
	C395.177002,265.204773 397.064606,266.090851 398.692902,267.302917 
z"/>
<path fill="#262626" opacity="1.000000" stroke="none" 
	d="
M251.991867,276.002686 
	C244.037445,271.248749 242.726135,263.448425 243.243469,255.319916 
	C243.655197,248.850662 244.073166,242.318832 250.448318,237.729416 
	C259.372040,231.305313 271.848755,232.201019 279.301941,240.656219 
	C280.066803,241.523941 280.914429,242.318756 281.792664,243.886444 
	C282.375549,248.239517 283.275269,251.846970 283.337067,255.468719 
	C283.617767,271.919983 271.572845,280.931244 255.801758,276.317505 
	C254.603638,275.966949 253.265121,276.096344 251.991867,276.002686 
M269.050842,246.966614 
	C269.050842,246.966614 269.026123,247.119812 268.881165,246.377075 
	C267.549316,242.834549 264.618347,242.139145 261.584656,243.113434 
	C256.759399,244.663116 256.016357,249.142044 256.175415,253.290512 
	C256.367004,258.287994 254.108353,264.467621 261.679657,267.526947 
	C265.025879,268.623871 267.881897,266.926666 268.478638,264.230103 
	C269.587158,259.220886 269.528748,253.953400 269.849243,248.230194 
	C269.532074,247.800613 269.214905,247.371017 269.050842,246.966614 
z"/>
<path fill="#272727" opacity="1.000000" stroke="none" 
	d="
M492.627808,241.020950 
	C493.607422,245.652405 494.537628,250.016037 495.270569,254.412567 
	C495.864044,257.972351 494.432220,259.470062 490.596680,259.313385 
	C483.860046,259.038208 477.104065,259.236511 468.602203,259.236511 
	C470.708618,262.576782 472.014801,264.648132 473.643555,266.855011 
	C476.613129,267.326569 480.047668,268.879242 481.759918,267.770996 
	C486.950562,264.411224 490.525238,265.294495 493.704407,270.742462 
	C485.289032,279.123596 475.815765,278.581451 465.942719,274.950012 
	C465.942719,274.950012 466.047729,274.921967 465.860229,274.915131 
	C465.403381,274.724792 465.311401,274.475708 465.396759,274.161102 
	C460.917511,272.393555 457.069580,266.396881 457.028381,261.000214 
	C457.007111,258.213043 457.111328,255.424911 457.352356,251.850067 
	C458.020447,248.714127 458.495026,246.365356 458.969574,244.016571 
	C465.569611,229.339828 486.408203,231.904587 492.627808,241.020950 
M481.858093,245.216980 
	C480.446869,241.562393 477.348389,241.403259 474.485504,242.392990 
	C470.369568,243.815918 470.144165,247.575150 470.105225,251.508636 
	C472.268524,251.690903 474.191376,251.852905 476.919403,251.953491 
	C482.885895,251.743408 483.413422,251.116913 481.858093,245.216980 
z"/>
<path fill="#202020" opacity="1.000000" stroke="none" 
	d="
M126.066727,217.132538 
	C116.077042,227.050247 106.110306,236.991211 96.090279,246.878189 
	C88.304314,254.560791 80.317802,262.045197 72.681198,269.872131 
	C68.359543,274.301514 64.218391,277.629089 57.264633,277.113495 
	C47.517059,276.390656 37.676548,276.952179 27.876551,276.871887 
	C26.401190,276.859833 23.774214,277.959198 25.272331,274.264893 
	C34.744686,273.989136 43.502098,274.036102 52.257618,273.928467 
	C54.459534,273.901398 56.655354,273.378967 58.853973,273.084167 
	C61.239220,272.243195 64.210335,272.031189 65.906906,270.450867 
	C72.756340,264.070831 79.212730,257.268799 85.908493,250.314606 
	C86.002747,250.006668 85.978203,250.019409 85.978195,250.019409 
	C92.428871,243.879425 98.879539,237.739441 106.260040,230.714401 
	C102.961571,230.714401 101.109650,230.714401 98.864067,230.714401 
	C98.521774,229.543228 98.297585,228.272049 97.785553,227.129883 
	C96.741295,224.800476 91.981659,224.170441 90.619423,226.207535 
	C89.766052,227.483688 89.604637,229.570236 88.497627,230.234177 
	C87.321991,230.939240 85.395676,230.392654 82.988960,230.392654 
	C83.912331,232.619873 84.552063,234.162933 85.191803,235.706009 
	C85.016365,236.077469 84.840935,236.448929 84.665497,236.820389 
	C83.173050,236.095566 81.382622,235.683151 80.239098,234.592499 
	C74.938263,229.536728 69.746178,224.360413 64.683907,219.065903 
	C63.501308,217.829086 62.303188,215.979843 62.262447,214.383011 
	C62.041744,205.732224 62.166859,197.072098 62.233521,188.415665 
	C62.237839,187.855194 62.750031,187.298615 64.136147,186.613022 
	C64.426292,188.165741 64.938705,189.714478 64.966728,191.271927 
	C65.068581,196.932266 64.617500,202.633774 65.166283,208.242310 
	C65.461304,211.257431 67.120010,214.251282 68.633446,216.995499 
	C69.639252,218.819275 71.454292,220.205826 72.944977,221.751587 
	C79.679657,228.735046 79.922249,228.743134 87.724335,222.549255 
	C91.147072,219.832031 99.277863,220.805634 102.005318,224.259308 
	C104.397118,227.287979 108.579178,227.780640 111.449837,225.345108 
	C113.461853,223.638031 115.405838,221.849228 117.445679,220.176788 
	C121.396309,216.937744 123.425941,213.144958 123.185387,207.696930 
	C122.752419,197.891022 122.967308,188.050186 123.172142,178.229355 
	C123.202431,176.777176 124.657242,175.354691 125.746017,174.389099 
	C126.340790,175.877090 126.642532,176.894455 126.944275,177.911804 
	C126.955276,178.109940 126.966278,178.308060 126.765533,179.155441 
	C126.391434,192.247314 126.229080,204.689926 126.066727,217.132538 
z"/>
<path fill="#242424" opacity="1.000000" stroke="none" 
	d="
M117.004227,294.505798 
	C117.006210,294.185669 117.008545,293.865540 117.015152,293.306000 
	C117.604584,291.752838 117.839241,289.745392 118.834618,289.241943 
	C123.921532,286.668945 129.016846,283.346069 134.466034,282.446259 
	C141.574448,281.272430 149.017654,282.107483 156.316772,282.115540 
	C159.857559,282.119446 161.419403,283.444641 159.412109,287.010864 
	C153.137283,298.159058 144.873764,307.371033 133.887085,314.152191 
	C131.392288,315.692017 130.070053,315.152283 128.246094,313.161987 
	C127.989250,312.974060 128.000443,312.997253 127.940796,312.654602 
	C127.102287,310.690186 126.472908,308.973694 125.516258,307.464630 
	C122.749458,303.100311 119.850998,298.819427 117.004227,294.505798 
z"/>
<path fill="#242424" opacity="1.000000" stroke="none" 
	d="
M41.999420,282.107544 
	C52.092781,281.059784 60.721565,283.544312 68.944649,288.553558 
	C71.562096,290.148041 71.828453,291.303925 70.597382,293.551300 
	C67.089020,299.955872 63.601246,306.372223 60.026108,312.739441 
	C58.321743,315.774872 55.577148,315.256592 53.658760,313.505371 
	C46.844746,307.285248 40.048576,301.003448 33.774586,294.253357 
	C31.032661,291.303375 29.569801,287.164520 27.526098,283.565552 
	C27.922174,283.078888 28.318251,282.592194 28.714327,282.105530 
	C32.977787,282.105530 37.241249,282.105530 41.999420,282.107544 
z"/>
<path fill="#282828" opacity="1.000000" stroke="none" 
	d="
M360.129913,276.025024 
	C356.213257,275.587952 355.455109,272.364807 355.242004,269.515808 
	C354.789246,263.462158 355.182159,257.343475 354.687134,251.295746 
	C354.523895,249.301529 353.040588,247.109329 351.563110,245.588333 
	C347.723541,241.635696 348.062775,237.893158 352.324829,234.575180 
	C353.721924,233.487534 354.060638,230.956482 354.710022,229.027161 
	C355.039581,228.048035 354.599365,226.586807 355.176575,225.957214 
	C356.700073,224.295334 365.968842,225.302979 367.687714,227.767120 
	C367.405609,231.146851 364.480011,235.303802 370.686066,234.930115 
	C372.740173,235.647354 374.794312,236.364594 376.610901,237.612869 
	C375.783203,239.850616 375.192993,241.557343 374.556396,243.398117 
	C372.145996,243.650986 369.747742,243.902588 366.995422,244.191330 
	C366.995422,251.074081 366.810181,257.542938 367.177032,263.980347 
	C367.238495,265.058746 369.693420,266.000763 371.042419,267.005798 
	C373.199982,267.852631 375.357513,268.699463 377.687134,270.141174 
	C379.287018,273.923920 378.137329,276.123596 374.829071,276.291290 
	C369.946381,276.538849 365.031250,276.145477 360.129913,276.025024 
z"/>
<path fill="#212121" opacity="1.000000" stroke="none" 
	d="
M20.352528,280.532532 
	C26.264771,296.840179 37.371151,308.519806 50.888924,318.031494 
	C55.435474,321.230682 60.879887,323.135010 65.822105,325.801361 
	C67.455673,326.682648 68.801056,328.098083 70.278198,329.269287 
	C69.900970,329.845428 69.523735,330.421600 69.146500,330.997772 
	C63.473179,328.505341 57.566673,326.432800 52.172665,323.437378 
	C38.889992,316.061127 28.946466,304.938538 21.585249,292.012299 
	C17.403851,284.669769 15.498822,275.937164 13.196271,267.656036 
	C11.952596,263.183167 10.713701,259.153900 6.697912,256.374878 
	C3.327034,254.042114 2.776573,249.897934 5.408316,247.765610 
	C14.097465,240.725372 13.239518,229.780884 17.536362,221.033264 
	C21.018202,213.944839 24.498653,206.699692 29.133425,200.368652 
	C36.907906,189.748825 47.178646,181.810089 59.315292,176.463379 
	C60.223820,176.063141 61.214111,175.408493 62.095695,175.506714 
	C63.040024,175.611923 63.900669,176.468307 64.797844,176.996841 
	C64.289772,177.712173 63.939480,178.788528 63.250397,179.089661 
	C48.707584,185.445023 37.266773,195.437714 28.282183,208.427505 
	C22.602753,216.638748 19.190350,225.809967 17.240541,235.447723 
	C16.135050,240.912064 14.419721,245.583725 9.742772,248.887375 
	C7.844804,250.228027 6.923204,252.069443 9.291053,253.705444 
	C15.401368,257.927216 16.558758,264.436523 17.793453,271.023346 
	C18.372713,274.113586 19.395489,277.120667 20.352528,280.532532 
z"/>
<path fill="#262626" opacity="1.000000" stroke="none" 
	d="
M429.925140,276.993317 
	C429.299896,275.042664 428.168854,273.100830 428.134827,271.139893 
	C427.964386,261.322144 427.947083,251.495895 428.202148,241.681107 
	C428.258240,239.522781 429.573517,235.610138 430.424438,235.578140 
	C433.597412,235.458862 436.824371,236.592392 440.014008,237.329666 
	C440.414520,237.422241 440.713348,237.954819 441.274109,238.487625 
	C445.408875,235.504227 449.377747,231.104309 454.776062,236.431854 
	C453.963440,240.018051 453.344543,242.884903 452.752747,245.626114 
	C443.677032,246.239487 441.019653,249.017059 440.891724,257.827393 
	C440.805511,263.765869 440.875305,269.706635 440.875305,275.467072 
	C436.744080,276.042908 433.334625,276.518097 429.925140,276.993317 
z"/>
<path fill="#222222" opacity="1.000000" stroke="none" 
	d="
M158.902374,273.054199 
	C163.014969,271.230988 167.137222,269.429077 171.233749,267.570496 
	C172.333862,267.071411 173.355637,266.399658 174.413361,265.807159 
	C174.682938,267.118622 175.364304,268.498749 175.158859,269.731018 
	C172.912964,283.202759 166.446640,294.707092 158.108536,305.253357 
	C149.675644,315.919525 138.292023,322.688110 126.338097,328.568604 
	C124.929855,329.261383 122.886314,328.662720 120.585449,327.570465 
	C122.000496,326.505249 123.267868,325.070709 124.855087,324.436066 
	C133.733231,320.886169 141.663818,315.860016 148.524139,309.258087 
	C158.402893,299.751465 165.955109,288.753693 169.691589,275.466095 
	C165.428253,275.957764 161.571548,276.402557 156.932739,276.634644 
	C144.701797,276.286438 133.253006,276.150879 121.804199,276.015350 
	C115.947441,270.555664 109.947067,265.236816 104.346764,259.525635 
	C103.125565,258.280273 103.334610,255.632431 102.941605,253.314789 
	C102.998253,252.999084 102.969017,253.031036 102.969009,253.031036 
	C106.404984,255.839767 109.972649,258.504578 113.241676,261.495758 
	C116.858017,264.804749 120.201027,268.412506 124.245056,272.317627 
	C126.257881,273.155914 127.684135,273.902283 129.120316,273.921906 
	C137.185974,274.032196 145.254715,274.022339 153.320755,273.921051 
	C155.184631,273.897675 157.042007,273.356903 158.902374,273.054199 
z"/>
<path fill="#212121" opacity="1.000000" stroke="none" 
	d="
M129.070709,229.956711 
	C128.889221,229.971725 128.707733,229.986740 128.140106,229.919479 
	C127.488922,229.732010 127.244110,229.781403 127.019539,229.985367 
	C125.665695,230.522400 123.952545,230.704590 123.015587,231.653336 
	C116.288155,238.465240 109.718376,245.432831 103.033783,252.691010 
	C102.969017,253.031036 102.998253,252.999084 103.014160,252.984131 
	C97.371918,257.786285 91.584831,262.461823 86.094528,267.463196 
	C81.308952,271.822601 76.887428,276.579712 72.236275,281.090179 
	C71.228424,282.067535 69.927071,282.742249 68.760910,283.556335 
	C68.283234,283.248047 67.805565,282.939758 67.327888,282.631439 
	C68.030342,281.148224 68.389984,279.318451 69.486595,278.233704 
	C86.374695,261.528442 103.302177,244.861389 120.415321,228.387848 
	C121.975540,226.885941 124.859428,226.146225 127.144836,226.111252 
	C140.698898,225.903900 154.257721,226.008911 168.371094,226.008911 
	C168.430191,225.621353 168.656586,224.136505 169.012527,221.802109 
	C174.316620,225.350037 174.386032,230.660004 176.253433,236.017120 
	C174.328629,236.119308 171.931335,236.780151 171.562759,236.184921 
	C167.110779,228.994644 159.984940,230.075317 153.245575,229.884567 
	C152.746368,229.870438 152.246841,229.867447 150.925705,229.667725 
	C143.092865,229.636353 136.081787,229.796524 129.070709,229.956711 
z"/>
<path fill="#212121" opacity="1.000000" stroke="none" 
	d="
M136.264832,219.092407 
	C132.819885,216.191635 131.557266,212.834595 132.077347,208.709122 
	C132.675797,203.961868 135.479172,201.033630 140.231110,201.084030 
	C144.033188,201.124374 147.113266,200.252396 150.340118,197.930649 
	C152.296295,196.523178 156.564499,196.127350 158.500229,197.340820 
	C162.842621,200.063049 166.977753,203.615173 170.081650,207.681076 
	C173.574707,212.256760 171.176758,218.227478 165.587463,220.029449 
	C161.305695,221.409897 156.732956,222.280701 152.781464,217.457092 
	C155.914139,216.949844 159.091904,216.623795 162.160843,215.860336 
	C163.739288,215.467636 165.879318,214.608124 166.384506,213.387833 
	C166.894821,212.155136 165.894684,210.123642 165.189178,208.613586 
	C164.576538,207.302338 163.415359,206.255966 162.558121,205.048859 
	C159.027679,200.077530 154.754120,199.284042 150.463593,203.410904 
	C148.074432,205.708923 146.125565,206.219131 142.984009,205.165146 
	C141.446777,204.649368 138.282516,205.449509 137.636383,206.629593 
	C136.637360,208.454224 136.445419,211.438446 137.286865,213.313599 
	C137.899734,214.679352 140.683563,215.534760 142.587448,215.721512 
	C144.345703,215.893951 146.220963,214.873505 148.259964,214.320007 
	C147.642181,219.610367 144.387085,220.831116 136.264832,219.092407 
z"/>
<path fill="#969696" opacity="1.000000" stroke="none" 
	d="
M430.096680,277.336395 
	C433.334625,276.518097 436.744080,276.042908 440.875305,275.467072 
	C440.875305,269.706635 440.805511,263.765869 440.891724,257.827393 
	C441.019653,249.017059 443.677032,246.239487 452.752747,245.626114 
	C453.344543,242.884903 453.963440,240.018051 454.797058,236.793381 
	C456.295563,237.114899 457.579346,237.794235 458.837891,238.460220 
	C458.649567,240.290710 458.474792,241.989639 458.634766,243.852570 
	C458.495026,246.365356 458.020447,248.714127 457.373932,251.369278 
	C455.059906,251.385223 452.732391,250.417770 450.813812,250.943298 
	C446.632446,252.088669 445.325409,255.881271 445.082581,259.733917 
	C444.780640,264.523834 444.998260,269.346924 445.004883,274.155701 
	C445.014343,281.041351 445.019348,281.071991 437.888428,281.037720 
	C434.895447,281.023346 431.380890,282.028656 430.096680,277.336395 
z"/>
<path fill="#969696" opacity="1.000000" stroke="none" 
	d="
M389.077057,275.326111 
	C393.305115,275.803131 397.660828,277.235352 402.036499,277.299164 
	C411.585358,277.438446 418.976166,271.711975 420.093506,262.259857 
	C420.844757,255.904831 419.252625,249.272797 418.806091,242.356400 
	C427.238251,249.391846 427.004608,267.274384 420.808960,275.577209 
	C417.265228,280.326202 405.737457,283.729340 398.825378,281.263153 
	C395.392242,280.038208 392.403534,277.567719 389.077057,275.326111 
z"/>
<path fill="#959595" opacity="1.000000" stroke="none" 
	d="
M212.832672,266.558441 
	C211.152451,264.786621 208.281097,262.745361 208.047867,260.437439 
	C207.371460,253.743942 206.689651,246.731979 207.979935,240.236313 
	C209.747574,231.337570 217.880203,228.179428 226.267731,231.872482 
	C227.630829,232.472672 228.911545,233.259964 230.581955,234.147659 
	C232.549774,232.346619 234.598984,230.471085 236.824951,228.310913 
	C238.368515,229.191086 239.735336,230.355881 241.483856,231.845963 
	C238.766602,234.172943 236.290436,236.293472 234.317947,237.982666 
	C229.987183,237.038651 225.447952,235.137573 220.981567,235.295563 
	C214.742081,235.516281 211.922104,241.317673 211.385483,246.198120 
	C210.668152,252.722046 212.251389,259.498932 212.832672,266.558441 
z"/>
<path fill="#232323" opacity="1.000000" stroke="none" 
	d="
M86.009628,249.995087 
	C83.280190,247.932297 80.380753,246.063156 77.843529,243.789764 
	C73.384315,239.794235 69.308159,235.358170 64.721703,231.525269 
	C63.272911,230.314529 60.713375,230.052979 58.651825,230.020798 
	C49.496674,229.877930 40.337078,230.039246 31.180685,229.941513 
	C28.969315,229.917908 26.764006,229.326111 24.555908,228.995605 
	C24.481207,228.286942 24.406504,227.578262 24.331802,226.869598 
	C27.306536,226.274094 30.281269,225.678589 33.864494,225.444305 
	C44.627964,225.866547 54.782932,225.927536 64.937897,225.988525 
	C71.775070,232.619888 78.651726,239.211777 85.385918,245.946106 
	C86.031143,246.591354 85.788742,248.124207 85.968300,249.632202 
	C85.978203,250.019409 86.002747,250.006668 86.009628,249.995087 
z"/>
<path fill="#959595" opacity="1.000000" stroke="none" 
	d="
M252.196808,276.285889 
	C253.265121,276.096344 254.603638,275.966949 255.801758,276.317505 
	C271.572845,280.931244 283.617767,271.919983 283.337067,255.468719 
	C283.275269,251.846970 282.375549,248.239517 281.920776,244.184601 
	C290.850189,251.615112 290.154083,271.397430 278.259003,279.301392 
	C271.322083,283.910797 258.170624,282.601501 252.196808,276.285889 
z"/>
<path fill="#949494" opacity="1.000000" stroke="none" 
	d="
M202.021606,274.250305 
	C207.066574,275.122955 212.344666,277.199066 217.603546,277.151428 
	C223.042465,277.102264 228.567459,275.309845 233.825470,273.582031 
	C235.345474,273.082581 236.933304,270.216980 237.016632,268.369659 
	C237.351532,260.944519 237.108795,253.493271 237.052643,245.592010 
	C244.678574,254.389648 239.518311,265.339722 240.960968,275.418579 
	C241.035049,275.936035 240.272537,276.742218 239.709930,277.156555 
	C231.249741,283.387482 213.828949,283.706146 205.308655,277.736359 
	C204.120285,276.903717 203.258987,275.604279 202.021606,274.250305 
z"/>
<path fill="#949494" opacity="1.000000" stroke="none" 
	d="
M307.748718,273.158783 
	C312.778625,274.417480 318.057434,276.831024 323.474915,277.197998 
	C340.605316,278.358490 347.674683,270.607758 345.914673,253.222031 
	C354.639313,260.941132 350.797760,277.117432 339.234192,280.298553 
	C329.131714,283.077667 320.263367,282.076294 311.511658,277.096710 
	C310.109802,276.299072 309.198914,274.638611 307.748718,273.158783 
z"/>
<path fill="#212121" opacity="1.000000" stroke="none" 
	d="
M129.170364,261.966125 
	C129.165222,260.272766 129.160080,258.579376 129.508514,256.395660 
	C133.351303,255.905319 136.840515,255.905319 140.329727,255.905319 
	C140.357239,255.247330 140.384735,254.589355 140.412247,253.931366 
	C137.335815,253.648300 134.259369,253.365219 131.182938,253.082138 
	C131.199692,252.614853 131.216431,252.147552 131.233185,251.680252 
	C134.552216,251.192200 137.871262,250.704132 141.190292,250.216080 
	C141.160309,249.455231 141.130310,248.694366 141.100327,247.933517 
	C137.141968,247.933517 133.183609,247.933517 129.225250,247.933517 
	C129.214249,247.511368 129.203262,247.089218 129.473358,246.274780 
	C131.181473,245.583893 132.608505,245.285294 134.399994,244.910431 
	C132.537048,243.300232 131.112793,242.069214 129.688538,240.838181 
	C129.688538,240.838181 129.764496,240.394104 130.191803,240.176514 
	C133.538376,240.029205 136.475021,240.302078 139.366943,240.053879 
	C140.308838,239.973022 141.134033,238.532394 142.012604,237.713669 
	C142.664597,239.604416 143.817230,241.478851 143.879547,243.388824 
	C144.114777,250.600220 143.995773,257.823151 143.668091,265.378113 
	C141.627121,264.898621 140.003021,263.763214 138.210617,263.339081 
	C135.254440,262.639557 132.189484,262.399719 129.170364,261.966125 
z"/>
<path fill="#222222" opacity="1.000000" stroke="none" 
	d="
M81.543068,284.209534 
	C80.763962,276.417877 82.928108,274.890808 89.813950,276.988403 
	C92.219490,277.721161 95.128006,276.824402 97.804535,276.638611 
	C99.698929,276.507141 101.716675,275.823273 103.453384,276.268158 
	C106.430214,277.030640 108.498978,279.088928 107.446014,282.529205 
	C106.415924,285.894745 103.331909,287.114471 100.707436,285.664185 
	C96.159264,283.150879 92.346008,281.908325 87.782349,285.680481 
	C86.779900,286.509064 83.830238,284.981812 81.543068,284.209534 
z"/>
<path fill="#222222" opacity="1.000000" stroke="none" 
	d="
M140.912292,178.841339 
	C144.639816,179.074829 147.950668,179.620224 147.883347,184.665985 
	C147.874512,185.328140 150.227493,186.378082 151.601456,186.635712 
	C155.741455,187.411972 159.850571,188.033951 162.156601,193.696136 
	C160.250641,193.141510 158.971252,192.942993 157.847580,192.413803 
	C150.967896,189.173904 145.370010,191.076614 141.583679,197.641708 
	C141.042755,198.579605 137.861710,199.245483 137.678543,198.947083 
	C135.683044,195.696243 134.041687,192.227997 132.615082,188.323013 
	C135.618851,187.552872 138.311432,187.278656 141.002014,187.002228 
	C141.000000,187.000000 140.996368,186.998062 141.101624,187.220108 
	C141.754761,187.557617 142.509277,187.964111 142.819000,187.744156 
	C146.485321,185.140793 145.839752,182.216797 140.912292,178.841339 
z"/>
<path fill="#1F1F1F" opacity="1.000000" stroke="none" 
	d="
M155.247253,257.443176 
	C155.208374,258.348389 154.973602,259.674408 154.561340,259.732117 
	C150.741791,260.266663 146.385437,255.179459 148.282928,251.794418 
	C149.889450,248.928467 153.046219,246.852051 155.741882,244.709229 
	C157.115967,243.616989 158.974609,243.124054 160.631683,242.400192 
	C164.696869,240.624390 168.497101,240.354752 172.035141,243.796127 
	C172.913528,244.650543 174.763168,244.410583 175.932770,245.081131 
	C178.495193,246.550171 181.900345,247.774231 183.067749,250.063812 
	C184.000626,251.893417 182.929581,255.962112 181.299652,257.554749 
	C179.501205,259.312073 176.050858,259.378784 173.320053,260.181915 
	C173.101044,259.451141 172.882050,258.720337 172.663055,257.989563 
	C174.031036,257.510529 175.750305,257.390411 176.688385,256.472198 
	C178.276230,254.917984 179.370392,252.859406 180.672089,251.012863 
	C178.770462,250.100494 176.889801,249.140442 174.960648,248.290543 
	C173.359360,247.585083 171.392181,247.371735 170.133270,246.299240 
	C167.653244,244.186447 165.331848,243.642563 162.449020,245.312485 
	C159.488510,247.027359 156.085129,248.154648 153.498001,250.292374 
	C150.265930,252.963058 150.754501,255.725006 155.247253,257.443176 
z"/>
<path fill="#1F1F1F" opacity="1.000000" stroke="none" 
	d="
M39.787380,204.505920 
	C38.367554,208.057968 38.367554,208.057968 44.908833,210.150040 
	C43.486626,210.917908 41.641891,212.655045 40.728062,212.256699 
	C38.673714,211.361160 36.072239,209.667603 35.590626,207.807632 
	C35.129555,206.026978 36.554920,203.092697 38.077927,201.631226 
	C39.996700,199.790009 42.751541,198.634613 45.335262,197.717438 
	C48.785358,196.492691 52.255657,196.374023 54.486706,200.193954 
	C55.240162,201.483978 55.876686,202.854462 56.736832,204.067505 
	C58.570652,206.653687 59.476971,209.043060 56.214828,211.271545 
	C52.897587,213.537674 49.737755,213.823517 45.245998,210.395844 
	C47.715366,209.733902 48.997387,209.458664 50.231506,209.041656 
	C51.690968,208.548492 53.109055,207.932907 54.545074,207.370392 
	C53.438679,205.225479 52.642365,202.801514 51.080673,201.066406 
	C50.410469,200.321762 48.022675,200.644150 46.640827,201.127136 
	C44.366165,201.922165 42.274963,203.242096 39.787380,204.505920 
z"/>
<path fill="#959595" opacity="1.000000" stroke="none" 
	d="
M465.893890,275.322388 
	C475.815765,278.581451 485.289032,279.123596 493.840515,271.036621 
	C495.309540,272.307770 496.625549,273.902100 497.927216,275.479065 
	C490.089783,283.115967 477.766510,283.783722 468.756989,278.865540 
	C467.564697,278.214691 466.805054,276.771149 465.893890,275.322388 
z"/>
<path fill="#969696" opacity="1.000000" stroke="none" 
	d="
M371.025238,266.537231 
	C369.693420,266.000763 367.238495,265.058746 367.177032,263.980347 
	C366.810181,257.542938 366.995422,251.074081 366.995422,244.191330 
	C369.747742,243.902588 372.145996,243.650986 374.556396,243.398117 
	C375.192993,241.557343 375.783203,239.850616 376.717987,237.964310 
	C382.450317,240.394669 379.189087,244.245621 378.799438,248.004395 
	C376.202423,248.004395 373.912048,248.004395 371.008057,248.004395 
	C371.008057,254.196701 371.008057,260.132690 371.025238,266.537231 
z"/>
<path fill="#222222" opacity="1.000000" stroke="none" 
	d="
M42.933914,237.108643 
	C44.105217,236.000046 45.159744,235.249832 46.214272,234.499634 
	C46.473652,235.649231 47.200695,236.930847 46.919304,237.927811 
	C44.399864,246.853851 41.794250,255.758926 38.977898,264.594910 
	C38.439892,266.282837 36.864635,267.640167 35.767925,269.150024 
	C35.184177,268.836609 34.600433,268.523193 34.016685,268.209808 
	C36.950172,257.962219 39.883656,247.714615 42.933914,237.108643 
z"/>
<path fill="#242424" opacity="1.000000" stroke="none" 
	d="
M33.184441,244.882050 
	C30.295717,247.364319 27.481167,249.534668 24.075129,252.161148 
	C27.228546,254.584564 30.095690,256.787994 32.962833,258.991394 
	C32.534309,259.649719 32.105785,260.308075 31.677263,260.966400 
	C26.952057,258.622528 22.196484,256.334808 17.560112,253.826706 
	C17.194622,253.628998 17.270638,251.329697 17.797810,250.970566 
	C22.010506,248.100800 26.346395,245.402252 30.766645,242.863876 
	C31.145683,242.646194 32.407097,243.965057 33.184441,244.882050 
z"/>
<path fill="#222222" opacity="1.000000" stroke="none" 
	d="
M51.688339,255.788055 
	C53.496609,254.403824 55.021408,253.239471 56.647243,251.997971 
	C53.438736,249.604568 50.602531,247.488892 46.933647,244.752075 
	C51.575043,243.859375 62.519558,248.799622 63.148048,251.342728 
	C63.380856,252.284760 62.680782,253.989655 61.859360,254.562332 
	C59.149940,256.451263 56.314526,258.284119 53.277618,259.528900 
	C51.626102,260.205811 49.469105,259.649475 47.540089,259.649353 
	C48.828350,258.435547 50.116611,257.221771 51.688339,255.788055 
z"/>
<path fill="#949494" opacity="1.000000" stroke="none" 
	d="
M360.129272,276.391907 
	C365.031250,276.145477 369.946381,276.538849 374.829071,276.291290 
	C378.137329,276.123596 379.287018,273.923920 377.949188,270.380981 
	C379.691559,272.282806 381.425537,274.487762 382.925140,276.841949 
	C383.213379,277.294525 382.799896,278.512024 382.340027,279.073456 
	C378.256317,284.058746 363.923401,282.531769 360.129272,276.391907 
z"/>
<path fill="#191919" opacity="1.000000" stroke="none" 
	d="
M141.004028,187.004456 
	C138.311432,187.278656 135.618851,187.552872 132.635132,187.942596 
	C131.693619,180.189514 133.581696,177.927383 140.605377,178.684540 
	C145.839752,182.216797 146.485321,185.140793 142.819000,187.744156 
	C142.509277,187.964111 141.754761,187.557617 141.189133,187.134460 
	C141.243988,186.703629 141.316589,186.580490 141.389221,186.457367 
	C141.260818,186.639740 141.132416,186.822098 141.004028,187.004456 
M139.528900,184.498688 
	C139.528900,184.498688 139.487198,184.513107 139.528900,184.498688 
z"/>
<path fill="#949494" opacity="1.000000" stroke="none" 
	d="
M324.029541,239.478043 
	C322.647552,238.497787 320.486816,237.208145 320.494873,235.932205 
	C320.504578,234.401672 322.031128,232.145660 323.481537,231.491608 
	C328.669159,229.152237 333.409912,230.977219 337.903198,234.750839 
	C338.013977,235.629974 337.990601,235.862640 337.967194,236.095322 
	C334.823364,236.011795 331.625671,235.555740 328.558136,235.999496 
	C326.988922,236.226517 325.652832,238.064713 324.029541,239.478043 
z"/>
<path fill="#222222" opacity="1.000000" stroke="none" 
	d="
M106.191040,266.964386 
	C111.513611,272.164490 116.562744,277.178986 121.611877,282.193512 
	C121.050858,282.827118 120.489838,283.460724 119.928825,284.094360 
	C117.503044,282.184082 114.930305,280.430298 112.688240,278.324463 
	C109.809082,275.620209 107.087791,272.725739 104.512779,269.729065 
	C103.210930,268.214081 102.203392,266.207886 106.191040,266.964386 
z"/>
<path fill="#191919" opacity="1.000000" stroke="none" 
	d="
M129.171936,248.383347 
	C133.183609,247.933517 137.141968,247.933517 141.100327,247.933517 
	C141.130310,248.694366 141.160309,249.455231 141.190292,250.216080 
	C137.871262,250.704132 134.552216,251.192200 131.233185,251.680252 
	C131.216431,252.147552 131.199692,252.614853 131.182938,253.082138 
	C134.259369,253.365219 137.335815,253.648300 140.412247,253.931366 
	C140.384735,254.589355 140.357239,255.247330 140.329727,255.905319 
	C136.840515,255.905319 133.351303,255.905319 129.525726,255.972656 
	C129.165756,253.637711 129.142181,251.235443 129.171936,248.383347 
z"/>
<path fill="#191919" opacity="1.000000" stroke="none" 
	d="
M129.144653,262.355896 
	C132.189484,262.399719 135.254440,262.639557 138.210617,263.339081 
	C140.003021,263.763214 141.627121,264.898621 143.638031,265.840851 
	C141.023987,270.071198 136.853683,269.481812 133.160294,268.030823 
	C131.393723,267.336823 130.440521,264.572357 129.144653,262.355896 
z"/>
<path fill="#969696" opacity="1.000000" stroke="none" 
	d="
M312.883514,249.311951 
	C317.659637,250.828339 322.538696,252.426117 327.069855,254.713120 
	C329.315491,255.846573 330.921173,258.247955 332.880096,260.416260 
	C327.605194,258.389496 322.198700,256.159302 316.968231,253.573181 
	C315.347351,252.771744 314.204590,251.003342 312.883514,249.311951 
z"/>
<path fill="#969696" opacity="1.000000" stroke="none" 
	d="
M338.130493,236.406982 
	C337.990601,235.862640 338.013977,235.629974 338.070801,235.048111 
	C340.324982,232.703644 342.545715,230.708344 344.887878,228.407669 
	C347.762482,229.741638 349.902222,231.727280 347.396545,235.027863 
	C344.968475,238.226151 342.192474,240.845352 338.130493,236.406982 
z"/>
<path fill="#191919" opacity="1.000000" stroke="none" 
	d="
M141.773651,237.476517 
	C141.134033,238.532394 140.308838,239.973022 139.366943,240.053879 
	C136.475021,240.302078 133.538376,240.029205 130.244263,239.957428 
	C130.563721,234.781647 135.967819,233.523148 141.773651,237.476517 
z"/>
<path fill="#3F3F3F" opacity="1.000000" stroke="none" 
	d="
M126.317513,216.786835 
	C126.229080,204.689926 126.391434,192.247314 126.748123,179.452591 
	C126.817741,191.547363 126.693016,203.994263 126.317513,216.786835 
z"/>
<path fill="#949494" opacity="1.000000" stroke="none" 
	d="
M158.440079,273.041748 
	C157.042007,273.356903 155.184631,273.897675 153.320755,273.921051 
	C145.254715,274.022339 137.185974,274.032196 129.120316,273.921906 
	C127.684135,273.902283 126.257881,273.155914 124.376328,272.606873 
	C135.276337,272.655518 146.627060,272.842377 158.440079,273.041748 
z"/>
<path fill="#3F3F3F" opacity="1.000000" stroke="none" 
	d="
M122.069244,276.371552 
	C133.253006,276.150879 144.701797,276.286438 156.486328,276.641144 
	C145.326126,276.816132 133.830215,276.771942 122.069244,276.371552 
z"/>
<path fill="#949494" opacity="1.000000" stroke="none" 
	d="
M58.395103,273.060608 
	C56.655354,273.378967 54.459534,273.901398 52.257618,273.928467 
	C43.502098,274.036102 34.744686,273.989136 25.523075,273.994049 
	C26.557625,273.664154 28.054832,273.071320 29.556887,273.058807 
	C39.016071,272.979767 48.476330,273.029694 58.395103,273.060608 
z"/>
<path fill="#969696" opacity="1.000000" stroke="none" 
	d="
M64.757088,225.592499 
	C54.782932,225.927536 44.627964,225.866547 34.274467,225.423050 
	C44.242722,225.092529 54.409496,225.144501 64.757088,225.592499 
z"/>
<path fill="#969696" opacity="1.000000" stroke="none" 
	d="
M370.758514,234.499939 
	C364.480011,235.303802 367.405609,231.146851 367.748474,228.136871 
	C373.302551,227.983948 370.446198,231.754211 370.758514,234.499939 
z"/>
<path fill="#3F3F3F" opacity="1.000000" stroke="none" 
	d="
M129.533142,229.967972 
	C136.081787,229.796524 143.092865,229.636353 150.450287,229.664917 
	C143.862961,229.895508 136.929276,229.937363 129.533142,229.967972 
z"/>
<path fill="#191919" opacity="1.000000" stroke="none" 
	d="
M129.506958,241.166656 
	C131.112793,242.069214 132.537048,243.300232 134.399994,244.910431 
	C132.608505,245.285294 131.181473,245.583893 129.462738,245.958252 
	C129.222488,244.521042 129.273926,243.008072 129.506958,241.166656 
z"/>
<path fill="#3F3F3F" opacity="1.000000" stroke="none" 
	d="
M126.948959,177.573914 
	C126.642532,176.894455 126.340790,175.877090 126.022591,174.534454 
	C126.321968,175.218109 126.637802,176.227066 126.948959,177.573914 
z"/>
<path fill="#949494" opacity="1.000000" stroke="none" 
	d="
M200.214203,272.152222 
	C200.249084,272.375916 200.447922,272.768677 200.825806,273.092468 
	C200.815903,272.771698 200.606995,272.537598 200.214203,272.152222 
z"/>
<path fill="#3F3F3F" opacity="1.000000" stroke="none" 
	d="
M127.259697,229.995026 
	C127.244110,229.781403 127.488922,229.732010 127.867065,229.911407 
	C127.980179,229.985596 127.499855,230.004684 127.259697,229.995026 
z"/>
<path fill="#969696" opacity="1.000000" stroke="none" 
	d="
M312.335541,248.356949 
	C312.420044,248.366837 312.567047,248.601013 312.914551,248.932556 
	C312.679169,249.169037 312.440155,249.019470 312.335541,248.356949 
z"/>
<path fill="#959595" opacity="1.000000" stroke="none" 
	d="
M465.434326,274.353699 
	C465.311401,274.475708 465.403381,274.724792 465.874573,274.967529 
	C465.818481,274.937653 465.616974,274.777496 465.434326,274.353699 
z"/>
<path fill="#000000" opacity="1.000000" stroke="none" 
	d="
M108.665451,185.876663 
	C108.180122,183.456863 107.505959,181.284622 107.782288,179.240906 
	C107.944199,178.043411 109.620880,177.050720 110.616150,175.965897 
	C111.446709,176.761551 112.698448,177.409851 113.036995,178.377625 
	C114.766907,183.322693 112.952904,186.553421 108.665451,185.876663 
z"/>
<path fill="#000000" opacity="1.000000" stroke="none" 
	d="
M80.055573,177.301727 
	C80.508003,178.000885 80.931419,178.475677 80.877304,178.887756 
	C80.583473,181.125168 80.171753,183.347092 79.800629,185.574371 
	C78.348236,185.213348 75.651016,184.875656 75.643745,184.487579 
	C75.593346,181.796158 76.102211,179.094299 76.431587,176.395782 
	C77.556442,176.613342 78.681297,176.830887 80.055573,177.301727 
z"/>
<path fill="#000000" opacity="1.000000" stroke="none" 
	d="
M80.523148,198.534561 
	C78.099747,201.654617 76.419807,200.922760 75.613503,197.827240 
	C75.092682,195.827759 75.159370,193.675278 74.921608,191.154984 
	C77.030930,191.019821 78.601524,190.919189 80.687347,190.785538 
	C80.687347,193.481659 80.687347,195.851151 80.523148,198.534561 
z"/>
<path fill="#000000" opacity="1.000000" stroke="none" 
	d="
M107.948395,195.463531 
	C108.897789,193.826843 109.820091,192.559402 110.742401,191.291962 
	C111.486000,192.554169 112.649109,193.747406 112.870682,195.095413 
	C113.171089,196.923126 112.750160,198.869400 112.623833,201.016479 
	C108.713524,200.772995 107.443687,199.044281 107.948395,195.463531 
z"/>
<path fill="#000000" opacity="1.000000" stroke="none" 
	d="
M98.378159,180.427490 
	C100.351639,180.335358 101.993713,180.434235 103.635796,180.533127 
	C103.357536,182.392731 103.441269,184.439682 102.623352,186.019974 
	C102.294868,186.654633 98.877724,186.625961 98.764763,186.279770 
	C98.185249,184.503677 98.224014,182.525864 98.378159,180.427490 
z"/>
<path fill="#000000" opacity="1.000000" stroke="none" 
	d="
M86.963394,204.206207 
	C87.508224,202.737793 88.249443,201.564240 88.990654,200.390671 
	C90.059639,201.173599 91.820572,201.792496 92.053146,202.773666 
	C92.532997,204.797989 92.197609,207.015533 92.197609,209.153595 
	C91.642067,209.333817 91.086525,209.514038 90.530983,209.694260 
	C89.407249,207.963196 88.283524,206.232132 86.963394,204.206207 
z"/>
<path fill="#000000" opacity="1.000000" stroke="none" 
	d="
M91.533676,184.521698 
	C89.545113,184.956879 87.405380,185.660660 86.047989,184.923630 
	C85.143044,184.432266 85.353111,181.887375 84.977402,179.773438 
	C88.652588,180.138290 92.404457,178.867691 91.533676,184.521698 
z"/>
<path fill="#000000" opacity="1.000000" stroke="none" 
	d="
M91.341995,175.984390 
	C86.947914,176.947144 85.736908,175.333130 87.726036,171.650116 
	C88.589035,170.052216 89.941170,168.718506 91.071144,167.264801 
	C91.548866,167.442322 92.026588,167.619858 92.504311,167.797394 
	C92.194206,170.438248 91.884094,173.079117 91.341995,175.984390 
z"/>
<path fill="#000000" opacity="1.000000" stroke="none" 
	d="
M92.111214,193.732574 
	C90.199203,195.259277 88.367851,196.464340 86.195045,197.894104 
	C84.754303,194.863510 84.016632,192.387863 87.216263,191.332687 
	C88.806267,190.808350 92.124405,189.038925 92.111214,193.732574 
z"/>
<path fill="#000000" opacity="1.000000" stroke="none" 
	d="
M103.103104,191.498444 
	C104.095497,193.822693 104.975540,196.344147 101.618080,196.466156 
	C98.894096,196.565109 96.288330,195.452820 97.531380,190.979416 
	C99.199799,191.068283 101.023705,191.165436 103.103104,191.498444 
z"/>
<path fill="#000000" opacity="1.000000" stroke="none" 
	d="
M100.868423,170.463257 
	C102.758629,174.066498 101.879143,175.913803 97.530533,176.424393 
	C97.530533,173.468277 97.530533,170.863281 97.530533,167.348328 
	C98.921829,168.606705 99.787605,169.389755 100.868423,170.463257 
z"/>
<path fill="#000000" opacity="1.000000" stroke="none" 
	d="
M100.002731,206.794769 
	C99.350227,207.689941 98.833389,208.286148 98.316551,208.882339 
	C97.827675,208.772217 97.338791,208.662079 96.849915,208.551941 
	C97.304817,205.926727 97.759727,203.301498 98.214630,200.676270 
	C99.304146,200.869568 100.393654,201.062866 101.483154,201.256165 
	C101.034904,203.002716 100.586655,204.749252 100.002731,206.794769 
z"/>
<path fill="#000000" opacity="1.000000" stroke="none" 
	d="
M116.771622,294.847107 
	C119.850998,298.819427 122.749458,303.100311 125.516258,307.464630 
	C126.472908,308.973694 127.102287,310.690186 127.950378,312.662903 
	C124.639870,314.244812 121.260162,315.475800 117.156372,316.970490 
	C113.164497,313.348785 108.654640,308.745636 103.619698,304.815125 
	C96.922012,299.586639 94.104637,299.919159 87.598412,305.326294 
	C86.238533,306.456451 84.795303,307.486267 83.187401,308.717926 
	C82.749413,303.272766 89.934029,294.946594 94.975151,294.984131 
	C98.246445,295.008484 101.510086,296.162323 104.780464,296.179443 
	C108.698151,296.199890 112.619347,295.548737 116.771622,294.847107 
z"/>
<path fill="#000000" opacity="1.000000" stroke="none" 
	d="
M406.998718,247.991547 
	C406.982330,252.867584 407.277588,257.770477 406.860565,262.612000 
	C406.455811,267.311096 402.482941,269.354767 398.306213,266.700012 
	C397.953705,262.148590 397.850403,258.192871 398.056946,254.253342 
	C398.315796,249.315521 402.413788,246.539978 406.998718,247.991547 
z"/>
<path fill="#949494" opacity="1.000000" stroke="none" 
	d="
M406.949463,247.620377 
	C402.413788,246.539978 398.315796,249.315521 398.056946,254.253342 
	C397.850403,258.192871 397.953705,262.148590 398.010223,266.556763 
	C397.064606,266.090851 395.177002,265.204773 395.131989,264.233307 
	C394.867676,258.533386 394.579712,252.752670 395.332703,247.137726 
	C395.557007,245.465057 399.102295,243.136261 401.135254,243.126923 
	C403.050537,243.118134 404.978058,245.768600 406.949463,247.620377 
z"/>
<path fill="#000000" opacity="1.000000" stroke="none" 
	d="
M269.956177,248.793442 
	C269.528748,253.953400 269.587158,259.220886 268.478638,264.230103 
	C267.881897,266.926666 265.025879,268.623871 261.387817,266.914734 
	C261.010590,261.997894 260.623077,257.672241 260.920319,253.394180 
	C261.252808,248.608795 264.422943,246.761627 269.026123,247.119812 
	C269.026123,247.119812 269.050842,246.966614 268.735535,247.217789 
	C268.932190,247.910461 269.444183,248.351944 269.956177,248.793442 
z"/>
<path fill="#949494" opacity="1.000000" stroke="none" 
	d="
M268.953644,246.748444 
	C264.422943,246.761627 261.252808,248.608795 260.920319,253.394180 
	C260.623077,257.672241 261.010590,261.997894 261.087952,266.739899 
	C254.108353,264.467621 256.367004,258.287994 256.175415,253.290512 
	C256.016357,249.142044 256.759399,244.663116 261.584656,243.113434 
	C264.618347,242.139145 267.549316,242.834549 268.953644,246.748444 
z"/>
<path fill="#949494" opacity="1.000000" stroke="none" 
	d="
M269.902710,248.511810 
	C269.444183,248.351944 268.932190,247.910461 268.658966,247.205200 
	C269.214905,247.371017 269.532074,247.800613 269.902710,248.511810 
z"/>
<path fill="#949494" opacity="1.000000" stroke="none" 
	d="
M476.114258,252.014923 
	C474.191376,251.852905 472.268524,251.690903 470.105225,251.508636 
	C470.144165,247.575150 470.369568,243.815918 474.485504,242.392990 
	C477.348389,241.403259 480.446869,241.562393 481.572723,245.698837 
	C479.431335,248.008698 473.265717,246.015457 476.114258,252.014923 
z"/>
<path fill="#000000" opacity="1.000000" stroke="none" 
	d="
M476.516846,251.984207 
	C473.265717,246.015457 479.431335,248.008698 481.636169,246.058990 
	C483.413422,251.116913 482.885895,251.743408 476.516846,251.984207 
z"/>
<path fill="#222222" opacity="1.000000" stroke="none" 
	d="
M141.002014,187.002228 
	C141.132416,186.822098 141.260818,186.639740 141.389221,186.457367 
	C141.316589,186.580490 141.243988,186.703629 141.083878,186.912415 
	C140.996368,186.998062 141.000000,187.000000 141.002014,187.002228 
z"/>
<path fill="#222222" opacity="1.000000" stroke="none" 
	d="
M139.508057,184.505890 
	C139.487198,184.513107 139.528900,184.498688 139.508057,184.505890 
z"/>
</svg>