<?xml version="1.0" standalone="no"?>
<!DOCTYPE svg PUBLIC "-//W3C//DTD SVG 20010904//EN"
 "http://www.w3.org/TR/2001/REC-SVG-20010904/DTD/svg10.dtd">
<svg version="1.0" xmlns="http://www.w3.org/2000/svg"
 width="1024.000000pt" height="1024.000000pt" viewBox="0 0 1024.000000 1024.000000"
 preserveAspectRatio="xMidYMid meet">
<metadata>
Created by potrace 1.16, written by Peter Selinger 2001-2019
</metadata>
<g transform="translate(0.000000,1024.000000) scale(0.100000,-0.100000)"
fill="#000000" stroke="none">
<path d="M4894 10225 c-238 -42 -470 -150 -639 -299 -201 -177 -301 -343 -372
-620 -26 -100 -26 -107 -30 -543 -4 -374 -2 -459 12 -555 27 -185 88 -346 182
-481 74 -106 76 -109 170 -191 178 -158 366 -255 597 -312 97 -23 318 -46 381
-39 17 2 62 6 100 9 58 6 152 22 225 41 91 23 273 105 372 169 265 169 425
387 506 688 l27 103 0 500 c0 536 -2 561 -56 725 -127 387 -443 664 -898 787
-85 22 -119 26 -296 29 -142 2 -224 -1 -281 -11z m176 -521 l0 -365 -57 6
c-144 17 -370 71 -396 95 -10 8 50 185 90 265 75 150 173 260 295 329 35 20
64 36 66 36 1 0 2 -165 2 -366z m329 239 c78 -71 140 -158 190 -268 38 -83 82
-227 72 -237 -22 -23 -268 -81 -391 -91 l-55 -5 -1 364 -1 363 57 -30 c32 -17
90 -60 129 -96z m198 78 c109 -43 228 -110 308 -174 62 -50 155 -144 155 -157
0 -22 -252 -202 -265 -189 -1 2 -13 38 -25 79 -44 151 -141 327 -234 423 -42
43 -52 57 -43 57 2 0 49 -18 104 -39z m-827 20 c0 -5 -7 -15 -16 -22 -71 -58
-175 -242 -229 -404 -21 -60 -39 -112 -41 -114 -4 -5 -191 121 -233 157 l-35
30 25 29 c100 119 282 242 454 309 68 26 75 28 75 15z m1403 -512 c33 -60 75
-177 93 -259 16 -71 36 -403 27 -456 l-6 -34 -202 0 -202 0 -6 168 c-4 95 -15
220 -27 290 -12 68 -20 125 -18 127 2 1 28 15 58 30 66 33 148 90 210 144 25
22 45 39 46 38 1 -1 13 -23 27 -48z m-1878 -75 c33 -21 82 -50 108 -64 54 -29
53 -26 32 -155 -8 -49 -20 -172 -27 -272 l-12 -183 -204 0 -205 0 6 193 c3
105 8 206 12 222 34 164 70 270 112 338 l24 38 47 -39 c26 -21 74 -56 107 -78z
m350 -174 c58 -22 223 -58 301 -65 43 -4 86 -9 94 -11 8 -1 18 -3 23 -3 4 -1
7 -95 7 -210 l0 -210 -265 0 -265 0 0 37 c0 62 19 301 31 394 13 94 11 92 74
68z m1059 -17 c16 -79 26 -171 31 -293 3 -74 8 -147 10 -162 l5 -28 -269 0
-268 0 1 213 1 213 60 2 c83 5 205 27 300 55 109 33 122 33 129 0z m-1297
-783 c7 -85 19 -205 27 -266 9 -61 16 -116 16 -121 0 -6 -30 -28 -67 -49 -80
-44 -117 -70 -198 -141 l-61 -52 -28 62 c-77 167 -106 323 -106 563 l0 164
203 -2 202 -3 12 -155z m661 -36 l2 -192 -22 -6 c-13 -3 -37 -6 -54 -6 -58 0
-208 -30 -307 -61 -54 -17 -99 -29 -101 -28 -1 2 -8 47 -14 99 -11 93 -17 155
-27 313 l-5 77 262 -2 263 -3 3 -191z m675 128 c-5 -83 -32 -363 -39 -400 l-6
-28 -86 29 c-94 30 -288 67 -356 67 l-42 0 3 198 c1 108 2 198 3 200 0 1 118
2 263 2 l263 -1 -3 -67z m547 -111 c0 -194 -14 -300 -53 -417 -28 -79 -77
-184 -87 -184 -4 0 -15 9 -26 21 -31 34 -154 123 -227 164 -62 34 -68 40 -64
64 29 163 47 330 47 454 l0 77 205 0 205 0 0 -179z m-1220 -732 c0 -203 -3
-369 -7 -367 -5 2 -30 15 -58 28 -30 15 -86 61 -140 115 -78 77 -98 105 -144
195 -29 58 -65 148 -81 200 -25 83 -26 96 -14 107 25 19 106 42 289 82 22 5
66 9 98 10 l57 1 0 -371z m400 337 c52 -13 118 -32 146 -41 58 -19 57 -16 23
-137 -45 -155 -128 -300 -228 -397 -56 -54 -164 -131 -185 -131 -8 0 -10 105
-8 362 1 200 2 367 2 372 0 14 147 -2 250 -28z m-951 -233 c52 -172 115 -290
206 -391 26 -29 45 -55 43 -58 -7 -7 -165 60 -243 103 -90 50 -162 103 -248
184 -68 63 -69 64 -50 84 48 53 222 182 248 184 6 1 26 -47 44 -106z m1401 32
c52 -35 108 -77 123 -93 l29 -30 -39 -38 c-91 -93 -204 -178 -313 -236 -55
-29 -214 -98 -227 -98 -2 0 15 19 37 43 100 102 198 284 241 445 18 64 25 79
38 75 9 -3 59 -34 111 -68z"/>
<path d="M6865 9519 c-47 -26 -45 22 -45 -1176 l0 -1132 -167 -163 c-92 -90
-267 -262 -388 -383 -122 -121 -230 -228 -241 -237 -19 -17 -23 -16 -85 16
-35 19 -88 39 -118 46 -65 15 -192 8 -243 -13 l-37 -16 7 32 c4 18 7 64 7 102
0 109 -33 171 -110 206 -54 25 -90 24 -203 -7 l-95 -26 -114 27 c-126 31 -172
30 -228 -5 -19 -12 -48 -43 -63 -68 -25 -43 -27 -55 -26 -149 1 -57 0 -103 -2
-103 -2 0 -29 7 -61 15 -110 29 -222 12 -327 -51 l-59 -35 -61 59 c-33 32
-217 216 -409 407 l-347 348 0 807 c0 444 -2 814 -5 822 -7 19 -48 38 -80 38
-14 0 -32 -11 -44 -26 -21 -27 -21 -32 -21 -860 l0 -833 49 -58 c27 -32 299
-307 604 -611 551 -549 556 -553 593 -550 48 4 80 43 70 84 -5 17 -53 74 -119
141 -62 62 -113 117 -115 122 -4 13 46 46 92 61 58 19 156 6 234 -30 96 -45
141 -38 168 26 12 30 12 43 -2 111 -9 43 -17 102 -17 132 -1 44 2 56 21 72 26
20 47 19 147 -12 82 -25 144 -24 249 7 139 41 162 15 132 -148 -24 -125 -22
-154 13 -189 38 -37 64 -37 154 3 93 40 198 45 264 10 23 -12 44 -26 48 -32 3
-5 -92 -105 -211 -222 -265 -260 -399 -393 -1203 -1188 -348 -344 -734 -725
-858 -847 l-226 -223 -1099 0 c-1085 0 -1098 0 -1118 -20 -12 -12 -20 -33 -20
-55 0 -70 -80 -66 1175 -67 l1126 0 87 83 c48 46 242 236 432 424 934 922
1283 1266 1466 1445 109 107 499 492 867 855 l667 659 0 1167 c0 1097 -1 1168
-17 1187 -22 26 -62 35 -88 21z"/>
<path d="M3309 9437 c-25 -12 -65 -30 -90 -41 -291 -124 -616 -316 -926 -547
-405 -303 -799 -722 -1078 -1149 -395 -603 -638 -1245 -735 -1939 l-10 -74
-112 -106 c-62 -58 -165 -158 -230 -221 l-118 -116 0 -130 0 -131 63 -59 c34
-32 137 -130 228 -217 l167 -157 11 -98 c44 -358 95 -592 194 -893 83 -251
218 -562 324 -744 22 -39 54 -95 71 -127 49 -88 236 -361 330 -483 357 -460
822 -875 1297 -1157 203 -120 435 -239 605 -310 129 -54 337 -128 361 -128 50
0 80 88 41 123 -10 9 -76 38 -147 65 -224 85 -455 192 -655 305 -25 14 -63 35
-85 47 -73 40 -323 205 -360 237 -6 5 -17 14 -26 19 -9 5 -33 23 -54 39 -21
17 -63 50 -94 74 -194 155 -500 452 -633 616 -40 50 -83 102 -96 115 -13 14
-42 51 -65 83 -23 32 -53 74 -67 92 -53 71 -200 291 -200 300 0 2 -14 28 -32
57 -304 507 -493 1075 -563 1692 -17 152 -16 151 -105 231 -30 28 -66 62 -80
76 -14 14 -54 52 -90 84 -188 169 -240 223 -240 248 0 19 39 62 172 188 95 90
207 198 250 239 l78 75 15 115 c72 559 263 1121 556 1637 82 146 229 368 312
473 37 47 97 122 133 168 72 91 283 321 360 392 422 390 838 663 1339 879 55
23 108 52 118 63 24 28 21 65 -8 93 -30 31 -64 31 -126 2z"/>
<path d="M7582 9265 c-98 -22 -167 -60 -205 -115 -15 -22 -17 -59 -17 -353 0
-351 1 -356 52 -404 36 -34 127 -72 188 -78 30 -3 65 -8 76 -10 l22 -5 -20
-62 c-23 -75 -18 -102 22 -123 49 -25 80 -4 106 70 69 202 220 355 420 426 40
14 94 22 169 26 133 6 219 -11 313 -63 74 -40 83 -47 132 -98 30 -30 45 -39
71 -38 39 1 56 17 65 59 6 28 1 36 -45 80 -150 143 -386 219 -604 193 -45 -5
-96 -14 -114 -19 l-32 -9 -3 198 -3 199 -30 31 c-39 41 -109 76 -187 95 -79
19 -290 18 -376 0z m306 -90 c139 -13 229 -79 174 -128 -68 -62 -365 -83 -523
-37 -44 12 -89 46 -89 66 0 25 47 60 104 78 92 29 184 35 334 21z m-372 -255
c132 -46 359 -46 506 0 l58 18 0 -88 c0 -58 -4 -91 -12 -98 -7 -6 -42 -20 -78
-33 -120 -41 -322 -38 -463 7 -71 23 -77 33 -77 130 0 46 2 84 3 84 2 0 30 -9
63 -20z m-5 -294 c59 -24 206 -39 312 -32 l98 6 -54 -53 c-29 -29 -66 -75 -82
-101 l-30 -47 -70 6 c-92 8 -202 42 -221 69 -9 13 -14 46 -14 93 0 81 3 83 61
59z"/>
<path d="M8501 8194 c-136 -36 -274 -133 -347 -242 -34 -50 -44 -59 -53 -48
-20 23 -137 66 -217 78 -195 30 -398 -74 -499 -256 -128 -232 -84 -503 109
-674 174 -154 410 -168 626 -37 62 38 115 89 124 122 8 26 -16 78 -39 87 -38
14 -66 4 -117 -40 -28 -26 -77 -59 -107 -73 -49 -23 -69 -26 -156 -26 -87 0
-106 3 -149 25 -283 144 -281 553 3 693 58 28 75 32 146 32 66 -1 90 -5 139
-28 32 -15 74 -40 92 -57 27 -23 44 -30 78 -30 50 0 68 16 112 100 123 233
437 312 657 166 105 -70 178 -173 193 -273 7 -50 23 -66 89 -88 64 -22 129
-75 158 -128 18 -34 22 -58 22 -132 0 -80 -3 -95 -29 -142 -29 -53 -74 -95
-136 -129 -32 -17 -65 -19 -347 -24 -305 -5 -313 -6 -334 -27 -29 -29 -29 -77
0 -106 21 -21 29 -22 283 -25 303 -3 373 4 475 54 130 62 220 184 244 332 30
179 -64 365 -224 447 -55 28 -60 34 -88 100 -72 174 -222 300 -416 350 -72 19
-221 18 -292 -1z"/>
<path d="M2410 8162 c-104 -35 -162 -79 -217 -165 -19 -30 -28 -37 -45 -31
-39 12 -133 7 -185 -10 -60 -20 -136 -83 -162 -135 -63 -127 -43 -258 53 -352
65 -62 116 -83 211 -83 69 -1 88 3 136 28 61 30 85 61 75 94 -11 35 -40 35
-102 2 -158 -84 -329 16 -311 183 6 59 25 96 70 139 51 48 124 60 203 33 74
-25 94 -17 123 50 46 108 143 169 267 169 60 0 81 -5 137 -32 55 -27 72 -42
106 -93 23 -34 41 -66 41 -73 0 -48 24 -89 69 -118 26 -18 55 -45 64 -61 35
-60 13 -158 -46 -201 -26 -19 -46 -21 -250 -26 l-221 -5 -15 -27 c-14 -24 -14
-28 3 -47 18 -20 29 -21 225 -21 147 1 217 5 244 14 108 39 173 130 171 241
-1 33 -8 76 -17 96 -18 44 -81 116 -108 124 -10 4 -19 15 -19 25 0 38 -53 130
-103 181 -72 74 -155 110 -260 115 -61 3 -96 0 -137 -14z"/>
<path d="M9418 6783 c-29 -34 -28 -54 8 -151 61 -166 104 -296 102 -303 -2 -4
-32 11 -68 33 -146 90 -297 147 -446 167 -49 7 -451 11 -1148 11 l-1073 0
-180 -177 c-99 -98 -435 -430 -748 -738 -312 -308 -654 -645 -759 -750 -106
-104 -380 -374 -610 -600 -536 -526 -778 -766 -845 -837 -62 -67 -69 -99 -27
-135 55 -47 57 -45 365 260 156 155 290 287 296 292 15 12 953 933 1240 1217
116 114 298 294 405 399 107 105 361 355 563 555 l368 364 1057 0 c1006 0
1062 -1 1151 -20 211 -43 411 -179 538 -365 43 -63 52 -70 84 -73 30 -3 41 2
59 25 24 30 24 29 -10 158 -101 389 -181 624 -225 663 -31 26 -76 29 -97 5z"/>
<path d="M1170 6520 c-27 -27 -26 -81 1 -106 20 -18 55 -19 1124 -22 l1102 -2
578 -573 c501 -497 581 -572 610 -575 26 -2 37 3 54 24 46 58 66 34 -577 677
l-598 597 -1137 0 c-1124 0 -1137 0 -1157 -20z"/>
<path d="M2347 6065 c-27 -7 -55 -19 -63 -27 -15 -15 -45 -109 -179 -573 -120
-416 -214 -735 -305 -1040 -43 -142 -76 -265 -73 -272 7 -17 28 -16 92 3 65
19 61 11 147 313 36 124 91 314 124 421 32 107 81 276 110 375 65 227 151 517
196 659 19 60 34 115 34 122 0 25 -33 32 -83 19z"/>
<path d="M7398 5984 c-91 -20 -131 -38 -176 -81 -39 -37 -40 -41 -47 -123 -3
-47 -5 -402 -3 -790 3 -797 -3 -734 85 -790 65 -41 175 -64 313 -64 180 0 292
32 362 104 l38 38 0 775 c0 527 -3 784 -11 805 -21 60 -117 111 -246 131 -96
15 -233 13 -315 -5z m383 -113 c162 -51 115 -119 -97 -142 -239 -27 -452 25
-406 98 12 20 97 53 159 63 90 14 268 4 344 -19z m10 -305 c59 -21 87 -50 73
-74 -6 -9 -35 -25 -65 -36 -45 -17 -80 -20 -214 -21 -167 0 -252 13 -294 44
-13 10 -20 23 -16 32 9 23 64 52 125 66 79 18 330 11 391 -11z m-44 -287 c57
-11 118 -47 118 -69 0 -29 -85 -60 -195 -70 -170 -16 -346 7 -386 51 -16 18
-16 20 5 43 52 55 284 78 458 45z m60 -315 c32 -16 58 -35 58 -43 0 -57 -257
-99 -426 -72 -170 28 -209 65 -118 111 58 30 130 39 286 36 134 -3 146 -5 200
-32z m-82 -265 c66 -12 130 -41 138 -62 7 -19 -3 -31 -38 -49 -112 -57 -481
-47 -542 15 -16 15 -15 18 7 42 39 42 127 62 286 64 50 0 117 -4 149 -10z m80
-316 c59 -25 73 -42 58 -76 -17 -36 -103 -58 -256 -64 -314 -14 -465 91 -222
154 34 8 102 11 210 9 133 -2 168 -6 210 -23z"/>
<path d="M9123 5665 c-117 -25 -215 -97 -273 -198 -31 -55 -30 -79 6 -96 31
-14 58 -1 78 37 23 44 91 108 140 132 127 61 296 33 407 -67 41 -37 82 -102
93 -146 7 -30 44 -51 73 -40 10 4 31 17 46 29 89 74 271 49 364 -48 107 -111
101 -296 -13 -414 -61 -62 -110 -77 -267 -84 -107 -4 -140 -8 -147 -20 -15
-24 -12 -44 11 -69 21 -22 26 -23 153 -19 103 4 143 9 188 27 114 44 211 149
244 265 24 87 15 208 -21 282 -92 189 -336 282 -514 196 l-39 -19 -20 36 c-34
59 -135 149 -206 182 -60 28 -156 49 -216 48 -14 0 -53 -7 -87 -14z"/>
<path d="M1513 5552 c-27 -15 -81 -45 -121 -67 -101 -55 -364 -203 -502 -282
-63 -36 -121 -72 -127 -81 -17 -20 -17 -74 -1 -94 7 -9 126 -80 263 -159 138
-78 308 -175 379 -215 77 -45 140 -74 157 -74 59 0 91 73 52 118 -16 17 -278
170 -463 270 -36 19 -72 40 -80 47 -8 7 -24 15 -35 19 -11 3 -31 15 -44 25
l-25 19 45 22 c24 13 55 30 69 40 14 9 54 33 90 52 132 71 186 101 210 118 14
9 30 19 35 21 59 23 209 116 217 135 17 37 -1 85 -39 101 -28 11 -36 10 -80
-15z"/>
<path d="M2502 5547 c-45 -48 -20 -102 69 -147 24 -13 121 -65 214 -118 94
-52 195 -108 225 -125 129 -70 142 -79 128 -93 -7 -7 -103 -63 -213 -124 -346
-193 -423 -241 -435 -271 -16 -38 9 -85 50 -94 25 -6 68 15 317 158 158 90
334 190 391 222 104 58 122 75 122 117 0 42 -27 64 -177 148 -82 46 -204 115
-273 155 -236 136 -349 195 -373 195 -13 0 -33 -10 -45 -23z"/>
<path d="M8627 5479 c-87 -20 -164 -84 -208 -171 -16 -32 -26 -58 -22 -58 5 0
-11 -13 -34 -28 -150 -100 -171 -321 -42 -453 72 -74 141 -102 261 -107 111
-5 148 9 148 53 0 44 -23 55 -123 55 -137 1 -205 33 -247 116 -47 94 -22 195
62 249 36 23 52 43 71 85 43 97 99 147 177 157 66 9 94 65 48 97 -25 18 -35
18 -91 5z"/>
<path d="M5645 4938 c-28 -16 -35 -28 -35 -68 -1 -33 27 -62 512 -543 282
-279 547 -542 590 -583 l76 -74 929 1 c1031 1 1313 8 1413 34 124 33 293 112
355 165 11 10 30 22 41 29 21 10 21 9 14 -22 -74 -312 -220 -681 -398 -1002
-72 -130 -84 -150 -113 -193 -16 -24 -29 -45 -29 -48 0 -5 -96 -149 -112 -169
-5 -5 -25 -33 -46 -61 -44 -62 -162 -215 -177 -230 -5 -6 -41 -46 -79 -90
-127 -145 -425 -435 -516 -503 -39 -29 -229 -176 -247 -191 -28 -23 -270 -185
-312 -208 -25 -14 -59 -33 -76 -43 -72 -44 -310 -166 -420 -215 -49 -23 -139
-60 -200 -84 -117 -45 -145 -66 -145 -109 0 -43 26 -71 66 -71 80 0 620 245
804 364 19 13 71 45 115 72 87 53 213 140 315 218 76 59 203 159 210 166 3 3
53 47 112 98 107 93 378 371 480 492 239 286 436 592 608 945 143 293 237 551
315 870 85 345 85 409 2 409 -38 0 -53 -12 -82 -67 -71 -135 -262 -290 -433
-351 -156 -55 -167 -56 -1296 -56 l-1039 0 -425 423 c-233 232 -486 484 -562
559 -141 142 -172 162 -215 136z"/>
<path d="M5656 4255 c-56 -52 -64 -42 406 -512 238 -238 447 -440 464 -449 27
-15 36 -15 62 -5 33 14 57 58 48 88 -7 21 -857 870 -890 890 -32 19 -61 15
-90 -12z"/>
<path d="M5510 3682 c-57 -19 -141 -59 -150 -72 -3 -3 -32 -25 -66 -47 l-61
-40 -28 20 c-37 27 -123 34 -164 14 -29 -14 -32 -14 -98 25 -132 78 -191 100
-279 106 -73 4 -88 1 -138 -21 -58 -27 -108 -84 -133 -150 -15 -42 -16 -155
-1 -198 19 -58 67 -115 121 -145 44 -25 63 -29 127 -29 92 0 145 24 277 125
48 38 111 85 140 105 62 44 49 48 220 -77 197 -143 297 -179 405 -143 154 50
227 209 168 367 -51 136 -201 206 -340 160z m-793 -153 c31 -12 84 -38 116
-57 58 -34 59 -35 40 -51 -81 -65 -141 -110 -160 -119 -35 -19 -111 -15 -143
8 -58 41 -65 153 -12 202 47 44 76 47 159 17z m936 10 c59 -31 84 -94 65 -167
-31 -123 -161 -109 -336 35 -27 21 -27 22 -7 38 65 51 182 104 233 105 13 0
33 -5 45 -11z"/>
<path d="M7470 3310 l-165 -5 -245 -124 c-135 -69 -317 -160 -405 -204 -178
-88 -195 -100 -195 -134 0 -13 62 -135 139 -271 145 -260 175 -313 236 -427
36 -68 62 -114 120 -220 136 -246 190 -346 216 -396 42 -84 68 -90 154 -35
250 161 419 285 588 436 401 355 719 760 950 1207 57 112 67 149 45 171 -9 9
-163 12 -643 10 -346 -1 -704 -5 -795 -8z"/>
<path d="M1350 3295 c-19 -22 -6 -56 77 -209 348 -639 850 -1173 1466 -1559
76 -48 117 -67 135 -65 27 3 36 16 117 163 21 39 67 122 103 185 118 210 249
445 295 530 43 79 210 377 241 430 29 51 33 92 11 110 -8 7 -202 106 -431 221
l-416 209 -793 0 c-689 0 -794 -2 -805 -15z"/>
<path d="M5098 2810 c-72 -13 -145 -39 -228 -80 -71 -36 -82 -38 -195 -44 -66
-3 -183 -17 -260 -31 -182 -33 -271 -33 -367 0 -89 30 -98 31 -132 4 -32 -25
-36 -77 -7 -103 30 -28 141 -64 233 -77 77 -11 92 -10 218 15 74 15 166 30
204 33 l68 6 -18 -29 c-10 -16 -45 -64 -79 -107 -33 -43 -104 -135 -158 -205
-128 -166 -152 -215 -151 -307 2 -207 208 -335 390 -242 58 30 112 76 417 355
l80 72 126 0 c99 -1 133 -4 157 -18 31 -17 273 -237 484 -438 58 -56 130 -123
160 -149 52 -46 138 -128 312 -296 76 -75 78 -78 78 -126 0 -39 -6 -56 -28
-82 -23 -28 -36 -34 -77 -38 -48 -4 -53 -2 -105 42 -30 26 -109 98 -175 159
-66 62 -142 133 -170 159 -27 25 -77 71 -110 101 -68 64 -108 73 -145 34 -31
-34 -35 -63 -12 -95 17 -23 256 -256 326 -316 113 -98 201 -187 213 -215 10
-25 11 -42 3 -71 -11 -43 -31 -64 -75 -81 -53 -20 -95 -4 -165 63 -36 34 -92
86 -125 116 -33 30 -108 100 -167 155 -60 55 -115 104 -125 110 -25 14 -73 9
-93 -9 -45 -41 -31 -95 42 -160 46 -41 291 -269 345 -321 26 -25 33 -40 33
-68 0 -75 -46 -118 -125 -118 -44 0 -71 17 -160 102 -167 160 -193 180 -231
180 -19 0 -44 -4 -54 -10 -14 -7 -29 -4 -62 15 -23 14 -50 25 -59 25 -13 0
-14 9 -6 67 8 53 6 76 -6 117 -49 155 -223 225 -369 148 -45 -23 -58 -26 -58
-15 0 21 -38 82 -71 114 -74 72 -193 90 -286 44 -28 -15 -78 -52 -110 -84 -87
-86 -182 -171 -190 -171 -16 0 -220 175 -331 281 -77 75 -99 104 -132 174 -44
90 -41 88 -183 146 -54 21 -61 22 -85 8 -15 -8 -33 -27 -40 -42 -22 -45 1 -76
83 -115 58 -28 73 -40 88 -73 45 -95 118 -173 402 -424 112 -99 105 -90 94
-127 -33 -115 26 -249 138 -315 34 -19 61 -27 111 -29 37 -1 70 -3 74 -3 4 -1
19 -22 32 -48 48 -94 137 -152 233 -153 52 0 52 0 63 -38 14 -53 61 -116 112
-149 36 -25 53 -28 135 -31 108 -4 140 8 233 87 30 26 60 50 67 54 6 4 34 -9
63 -28 55 -37 134 -65 185 -65 95 0 203 69 245 155 21 44 23 45 71 45 57 0
136 28 185 65 38 29 94 118 94 150 0 18 7 20 74 21 85 1 138 25 199 93 33 37
67 118 67 162 0 13 12 19 43 24 122 21 237 144 237 255 0 21 12 37 46 65 70
58 118 112 176 201 47 71 59 83 102 100 73 28 106 59 106 99 0 25 -7 39 -27
55 -36 28 -76 23 -176 -23 -65 -30 -78 -41 -92 -73 -28 -68 -153 -224 -179
-224 -6 0 -38 26 -71 58 -34 31 -103 95 -155 142 -52 47 -131 119 -175 161
-104 98 -226 211 -241 224 -6 6 -43 39 -81 75 -74 71 -240 221 -281 257 -14
12 -49 34 -76 50 -48 26 -60 28 -216 33 -184 7 -203 3 -261 -52 -19 -18 -53
-48 -75 -67 -21 -19 -84 -76 -139 -126 -190 -175 -231 -205 -282 -205 -73 0
-113 43 -113 121 0 48 10 68 65 134 23 28 61 77 86 110 62 84 120 160 248 322
118 151 292 223 506 210 130 -8 217 -29 456 -109 l214 -72 125 -1 c134 0 197
14 273 62 30 19 37 29 37 56 0 43 -25 77 -55 77 -14 0 -60 -12 -102 -27 -130
-44 -192 -38 -431 42 -267 91 -377 115 -532 120 -69 2 -146 0 -172 -5z m-589
-1776 c29 -24 31 -30 31 -93 l0 -68 -138 -133 c-152 -145 -171 -159 -220 -160
-51 0 -102 54 -102 109 0 22 5 51 11 64 12 27 281 288 307 299 37 15 81 8 111
-18z m424 -124 c14 -11 31 -36 37 -56 19 -56 6 -96 -48 -145 -26 -24 -113
-106 -194 -183 -81 -77 -157 -144 -170 -149 -70 -26 -148 30 -148 107 0 41 4
46 113 151 234 227 283 273 302 283 31 18 80 14 108 -8z m194 -362 c26 -27 39
-82 29 -125 -10 -38 -248 -270 -287 -278 -85 -19 -145 38 -140 132 1 22 98
125 230 247 61 55 67 58 104 53 23 -3 50 -16 64 -29z m239 -103 c87 -67 124
-108 124 -139 0 -47 -36 -85 -90 -94 -61 -10 -80 -6 -118 26 l-31 27 29 58
c16 32 32 78 36 102 3 25 9 45 12 45 3 0 20 -11 38 -25z"/>
</g>
</svg>
